<mxfile host="Electron" agent="Mozilla/5.0 (Windows NT 10.0; Win64; x64) AppleWebKit/537.36 (KHTML, like Gecko) draw.io/24.7.8 Chrome/128.0.6613.36 Electron/32.0.1 Safari/537.36" version="24.7.8">
  <diagram name="Página-1" id="bzNBxCzF1qFJ-Q7jRz6z">
    <mxGraphModel dx="1290" dy="691" grid="0" gridSize="10" guides="1" tooltips="1" connect="1" arrows="1" fold="1" page="1" pageScale="1" pageWidth="827" pageHeight="1169" math="0" shadow="0">
      <root>
        <mxCell id="0" />
        <mxCell id="1" parent="0" />
        <mxCell id="Z4XfltfonYbvwZVMahgY-47" value="" style="rounded=1;whiteSpace=wrap;html=1;fillColor=#d5e8d4;strokeColor=#82b366;" parent="1" vertex="1">
          <mxGeometry x="30" y="70" width="784" height="630" as="geometry" />
        </mxCell>
        <mxCell id="Z4XfltfonYbvwZVMahgY-44" value="" style="rounded=1;whiteSpace=wrap;html=1;fillColor=#dae8fc;strokeColor=#6c8ebf;" parent="1" vertex="1">
          <mxGeometry x="64" y="120" width="740" height="550" as="geometry" />
        </mxCell>
        <mxCell id="Z4XfltfonYbvwZVMahgY-8" value="" style="rounded=1;whiteSpace=wrap;html=1;fillColor=#fff2cc;strokeColor=#d6b656;" parent="1" vertex="1">
          <mxGeometry x="90" y="170" width="690" height="220" as="geometry" />
        </mxCell>
        <mxCell id="Z4XfltfonYbvwZVMahgY-5" value="Uma propriedade" style="text;html=1;align=center;verticalAlign=middle;whiteSpace=wrap;rounded=0;fillColor=#fff2cc;strokeColor=#d6b656;" parent="1" vertex="1">
          <mxGeometry x="260" y="160" width="120" height="30" as="geometry" />
        </mxCell>
        <mxCell id="Z4XfltfonYbvwZVMahgY-15" style="edgeStyle=orthogonalEdgeStyle;rounded=0;orthogonalLoop=1;jettySize=auto;html=1;" parent="1" source="Z4XfltfonYbvwZVMahgY-9" target="Z4XfltfonYbvwZVMahgY-12" edge="1">
          <mxGeometry relative="1" as="geometry" />
        </mxCell>
        <mxCell id="Z4XfltfonYbvwZVMahgY-17" style="edgeStyle=orthogonalEdgeStyle;rounded=0;orthogonalLoop=1;jettySize=auto;html=1;entryX=0;entryY=0.5;entryDx=0;entryDy=0;" parent="1" source="Z4XfltfonYbvwZVMahgY-9" target="Z4XfltfonYbvwZVMahgY-14" edge="1">
          <mxGeometry relative="1" as="geometry" />
        </mxCell>
        <mxCell id="Z4XfltfonYbvwZVMahgY-18" style="edgeStyle=orthogonalEdgeStyle;rounded=0;orthogonalLoop=1;jettySize=auto;html=1;entryX=0;entryY=0.5;entryDx=0;entryDy=0;" parent="1" source="Z4XfltfonYbvwZVMahgY-9" target="Z4XfltfonYbvwZVMahgY-13" edge="1">
          <mxGeometry relative="1" as="geometry" />
        </mxCell>
        <mxCell id="Z4XfltfonYbvwZVMahgY-9" value="UH 1" style="rounded=1;whiteSpace=wrap;html=1;fillColor=#ffe6cc;strokeColor=#d79b00;" parent="1" vertex="1">
          <mxGeometry x="120" y="180" width="120" height="60" as="geometry" />
        </mxCell>
        <mxCell id="Z4XfltfonYbvwZVMahgY-10" value="UH 2" style="rounded=1;whiteSpace=wrap;html=1;fillColor=#ffe6cc;strokeColor=#d79b00;" parent="1" vertex="1">
          <mxGeometry x="120" y="250" width="120" height="60" as="geometry" />
        </mxCell>
        <mxCell id="Z4XfltfonYbvwZVMahgY-11" value="UH 2" style="rounded=1;whiteSpace=wrap;html=1;fillColor=#ffe6cc;strokeColor=#d79b00;" parent="1" vertex="1">
          <mxGeometry x="120" y="320" width="120" height="60" as="geometry" />
        </mxCell>
        <mxCell id="Z4XfltfonYbvwZVMahgY-23" style="edgeStyle=orthogonalEdgeStyle;rounded=0;orthogonalLoop=1;jettySize=auto;html=1;entryX=0;entryY=0.75;entryDx=0;entryDy=0;" parent="1" source="Z4XfltfonYbvwZVMahgY-12" target="Z4XfltfonYbvwZVMahgY-19" edge="1">
          <mxGeometry relative="1" as="geometry" />
        </mxCell>
        <mxCell id="Z4XfltfonYbvwZVMahgY-24" style="edgeStyle=orthogonalEdgeStyle;rounded=0;orthogonalLoop=1;jettySize=auto;html=1;" parent="1" source="Z4XfltfonYbvwZVMahgY-12" target="Z4XfltfonYbvwZVMahgY-20" edge="1">
          <mxGeometry relative="1" as="geometry" />
        </mxCell>
        <mxCell id="Z4XfltfonYbvwZVMahgY-25" style="edgeStyle=orthogonalEdgeStyle;rounded=0;orthogonalLoop=1;jettySize=auto;html=1;entryX=0;entryY=0.5;entryDx=0;entryDy=0;" parent="1" source="Z4XfltfonYbvwZVMahgY-12" target="Z4XfltfonYbvwZVMahgY-21" edge="1">
          <mxGeometry relative="1" as="geometry" />
        </mxCell>
        <mxCell id="Z4XfltfonYbvwZVMahgY-12" value="Configuracao de Acomodação 1" style="rounded=1;whiteSpace=wrap;html=1;fillColor=#dae8fc;strokeColor=#6c8ebf;" parent="1" vertex="1">
          <mxGeometry x="409" y="180" width="120" height="40" as="geometry" />
        </mxCell>
        <mxCell id="Z4XfltfonYbvwZVMahgY-13" value="Configuracao de Acomodação 2" style="rounded=1;whiteSpace=wrap;html=1;fillColor=#dae8fc;strokeColor=#6c8ebf;" parent="1" vertex="1">
          <mxGeometry x="409" y="230" width="120" height="40" as="geometry" />
        </mxCell>
        <mxCell id="Z4XfltfonYbvwZVMahgY-14" value="Configuracao de Acomodação 3" style="rounded=1;whiteSpace=wrap;html=1;fillColor=#dae8fc;strokeColor=#6c8ebf;" parent="1" vertex="1">
          <mxGeometry x="409" y="280" width="120" height="40" as="geometry" />
        </mxCell>
        <mxCell id="Z4XfltfonYbvwZVMahgY-19" value="Tipo de cama 1" style="rounded=1;whiteSpace=wrap;html=1;fillColor=#e1d5e7;strokeColor=#9673a6;" parent="1" vertex="1">
          <mxGeometry x="630" y="180" width="120" height="20" as="geometry" />
        </mxCell>
        <mxCell id="Z4XfltfonYbvwZVMahgY-20" value="Tipo de cama 2" style="rounded=1;whiteSpace=wrap;html=1;fillColor=#e1d5e7;strokeColor=#9673a6;" parent="1" vertex="1">
          <mxGeometry x="630" y="210" width="120" height="20" as="geometry" />
        </mxCell>
        <mxCell id="Z4XfltfonYbvwZVMahgY-21" value="Tipo de cama 3" style="rounded=1;whiteSpace=wrap;html=1;fillColor=#e1d5e7;strokeColor=#9673a6;" parent="1" vertex="1">
          <mxGeometry x="630" y="240" width="120" height="20" as="geometry" />
        </mxCell>
        <mxCell id="Z4XfltfonYbvwZVMahgY-27" value="" style="rounded=1;whiteSpace=wrap;html=1;fillColor=#fff2cc;strokeColor=#d6b656;" parent="1" vertex="1">
          <mxGeometry x="90" y="425" width="690" height="220" as="geometry" />
        </mxCell>
        <mxCell id="Z4XfltfonYbvwZVMahgY-28" style="edgeStyle=orthogonalEdgeStyle;rounded=0;orthogonalLoop=1;jettySize=auto;html=1;" parent="1" source="Z4XfltfonYbvwZVMahgY-31" target="Z4XfltfonYbvwZVMahgY-37" edge="1">
          <mxGeometry relative="1" as="geometry" />
        </mxCell>
        <mxCell id="Z4XfltfonYbvwZVMahgY-29" style="edgeStyle=orthogonalEdgeStyle;rounded=0;orthogonalLoop=1;jettySize=auto;html=1;entryX=0;entryY=0.5;entryDx=0;entryDy=0;" parent="1" source="Z4XfltfonYbvwZVMahgY-31" target="Z4XfltfonYbvwZVMahgY-39" edge="1">
          <mxGeometry relative="1" as="geometry" />
        </mxCell>
        <mxCell id="Z4XfltfonYbvwZVMahgY-30" style="edgeStyle=orthogonalEdgeStyle;rounded=0;orthogonalLoop=1;jettySize=auto;html=1;entryX=0;entryY=0.5;entryDx=0;entryDy=0;" parent="1" source="Z4XfltfonYbvwZVMahgY-31" target="Z4XfltfonYbvwZVMahgY-38" edge="1">
          <mxGeometry relative="1" as="geometry" />
        </mxCell>
        <mxCell id="Z4XfltfonYbvwZVMahgY-31" value="UH 1" style="rounded=1;whiteSpace=wrap;html=1;fillColor=#ffe6cc;strokeColor=#d79b00;" parent="1" vertex="1">
          <mxGeometry x="120" y="435" width="120" height="60" as="geometry" />
        </mxCell>
        <mxCell id="Z4XfltfonYbvwZVMahgY-32" value="UH 2" style="rounded=1;whiteSpace=wrap;html=1;fillColor=#ffe6cc;strokeColor=#d79b00;" parent="1" vertex="1">
          <mxGeometry x="121" y="505" width="120" height="60" as="geometry" />
        </mxCell>
        <mxCell id="Z4XfltfonYbvwZVMahgY-33" value="UH 3" style="rounded=1;whiteSpace=wrap;html=1;fillColor=#ffe6cc;strokeColor=#d79b00;" parent="1" vertex="1">
          <mxGeometry x="121" y="575" width="120" height="60" as="geometry" />
        </mxCell>
        <mxCell id="Z4XfltfonYbvwZVMahgY-34" style="edgeStyle=orthogonalEdgeStyle;rounded=0;orthogonalLoop=1;jettySize=auto;html=1;entryX=0;entryY=0.75;entryDx=0;entryDy=0;" parent="1" source="Z4XfltfonYbvwZVMahgY-37" target="Z4XfltfonYbvwZVMahgY-40" edge="1">
          <mxGeometry relative="1" as="geometry" />
        </mxCell>
        <mxCell id="Z4XfltfonYbvwZVMahgY-35" style="edgeStyle=orthogonalEdgeStyle;rounded=0;orthogonalLoop=1;jettySize=auto;html=1;" parent="1" source="Z4XfltfonYbvwZVMahgY-37" target="Z4XfltfonYbvwZVMahgY-41" edge="1">
          <mxGeometry relative="1" as="geometry" />
        </mxCell>
        <mxCell id="Z4XfltfonYbvwZVMahgY-36" style="edgeStyle=orthogonalEdgeStyle;rounded=0;orthogonalLoop=1;jettySize=auto;html=1;entryX=0;entryY=0.5;entryDx=0;entryDy=0;" parent="1" source="Z4XfltfonYbvwZVMahgY-37" target="Z4XfltfonYbvwZVMahgY-42" edge="1">
          <mxGeometry relative="1" as="geometry" />
        </mxCell>
        <mxCell id="Z4XfltfonYbvwZVMahgY-37" value="Configuracao de Acomodação 1" style="rounded=1;whiteSpace=wrap;html=1;fillColor=#dae8fc;strokeColor=#6c8ebf;" parent="1" vertex="1">
          <mxGeometry x="409" y="435" width="120" height="40" as="geometry" />
        </mxCell>
        <mxCell id="Z4XfltfonYbvwZVMahgY-38" value="Configuracao de Acomodação 2" style="rounded=1;whiteSpace=wrap;html=1;fillColor=#dae8fc;strokeColor=#6c8ebf;" parent="1" vertex="1">
          <mxGeometry x="409" y="485" width="120" height="40" as="geometry" />
        </mxCell>
        <mxCell id="Z4XfltfonYbvwZVMahgY-39" value="Configuracao de Acomodação 3" style="rounded=1;whiteSpace=wrap;html=1;fillColor=#dae8fc;strokeColor=#6c8ebf;" parent="1" vertex="1">
          <mxGeometry x="409" y="535" width="120" height="40" as="geometry" />
        </mxCell>
        <mxCell id="Z4XfltfonYbvwZVMahgY-40" value="Tipo de cama 1" style="rounded=1;whiteSpace=wrap;html=1;fillColor=#e1d5e7;strokeColor=#9673a6;" parent="1" vertex="1">
          <mxGeometry x="630" y="435" width="120" height="20" as="geometry" />
        </mxCell>
        <mxCell id="Z4XfltfonYbvwZVMahgY-41" value="Tipo de cama 2" style="rounded=1;whiteSpace=wrap;html=1;fillColor=#e1d5e7;strokeColor=#9673a6;" parent="1" vertex="1">
          <mxGeometry x="630" y="465" width="120" height="20" as="geometry" />
        </mxCell>
        <mxCell id="Z4XfltfonYbvwZVMahgY-42" value="Tipo de cama 3" style="rounded=1;whiteSpace=wrap;html=1;fillColor=#e1d5e7;strokeColor=#9673a6;" parent="1" vertex="1">
          <mxGeometry x="630" y="495" width="120" height="20" as="geometry" />
        </mxCell>
        <mxCell id="Z4XfltfonYbvwZVMahgY-43" value="Outra propriedade" style="text;html=1;align=center;verticalAlign=middle;whiteSpace=wrap;rounded=0;fillColor=#fff2cc;strokeColor=#d6b656;" parent="1" vertex="1">
          <mxGeometry x="260" y="414" width="120" height="30" as="geometry" />
        </mxCell>
        <mxCell id="Z4XfltfonYbvwZVMahgY-45" value="Um contrato de Gestão" style="text;html=1;align=center;verticalAlign=middle;whiteSpace=wrap;rounded=0;fillColor=#dae8fc;strokeColor=#6c8ebf;" parent="1" vertex="1">
          <mxGeometry x="160" y="110" width="140" height="30" as="geometry" />
        </mxCell>
        <mxCell id="Z4XfltfonYbvwZVMahgY-48" value="Uma empresa contratante" style="text;html=1;align=center;verticalAlign=middle;whiteSpace=wrap;rounded=0;fillColor=#dae8fc;strokeColor=#6c8ebf;" parent="1" vertex="1">
          <mxGeometry x="130" y="60" width="180" height="30" as="geometry" />
        </mxCell>
        <mxCell id="b7DNo_pChQtwdVCJHLkM-22" style="edgeStyle=orthogonalEdgeStyle;rounded=0;orthogonalLoop=1;jettySize=auto;html=1;entryX=0.5;entryY=0;entryDx=0;entryDy=0;" parent="1" source="b7DNo_pChQtwdVCJHLkM-6" target="b7DNo_pChQtwdVCJHLkM-7" edge="1">
          <mxGeometry relative="1" as="geometry" />
        </mxCell>
        <mxCell id="b7DNo_pChQtwdVCJHLkM-6" value="Contratante" style="rounded=1;whiteSpace=wrap;html=1;" parent="1" vertex="1">
          <mxGeometry x="73" y="1228" width="120" height="60" as="geometry" />
        </mxCell>
        <mxCell id="b7DNo_pChQtwdVCJHLkM-29" style="edgeStyle=orthogonalEdgeStyle;rounded=0;orthogonalLoop=1;jettySize=auto;html=1;entryX=0.5;entryY=0;entryDx=0;entryDy=0;" parent="1" source="b7DNo_pChQtwdVCJHLkM-7" target="b7DNo_pChQtwdVCJHLkM-8" edge="1">
          <mxGeometry relative="1" as="geometry" />
        </mxCell>
        <mxCell id="b7DNo_pChQtwdVCJHLkM-7" value="Contrato" style="rounded=1;whiteSpace=wrap;html=1;" parent="1" vertex="1">
          <mxGeometry x="73" y="1338" width="120" height="60" as="geometry" />
        </mxCell>
        <mxCell id="b7DNo_pChQtwdVCJHLkM-32" style="edgeStyle=orthogonalEdgeStyle;rounded=0;orthogonalLoop=1;jettySize=auto;html=1;exitX=0.5;exitY=1;exitDx=0;exitDy=0;entryX=0.5;entryY=0;entryDx=0;entryDy=0;" parent="1" source="b7DNo_pChQtwdVCJHLkM-8" target="b7DNo_pChQtwdVCJHLkM-9" edge="1">
          <mxGeometry relative="1" as="geometry" />
        </mxCell>
        <mxCell id="b7DNo_pChQtwdVCJHLkM-8" value="Propriedade" style="rounded=1;whiteSpace=wrap;html=1;" parent="1" vertex="1">
          <mxGeometry x="73" y="1443" width="120" height="60" as="geometry" />
        </mxCell>
        <mxCell id="b7DNo_pChQtwdVCJHLkM-34" style="edgeStyle=orthogonalEdgeStyle;rounded=0;orthogonalLoop=1;jettySize=auto;html=1;entryX=0.5;entryY=0;entryDx=0;entryDy=0;" parent="1" source="b7DNo_pChQtwdVCJHLkM-9" target="b7DNo_pChQtwdVCJHLkM-16" edge="1">
          <mxGeometry relative="1" as="geometry" />
        </mxCell>
        <mxCell id="b7DNo_pChQtwdVCJHLkM-9" value="Unidades Habitacionais" style="rounded=1;whiteSpace=wrap;html=1;" parent="1" vertex="1">
          <mxGeometry x="73" y="1558" width="120" height="60" as="geometry" />
        </mxCell>
        <mxCell id="b7DNo_pChQtwdVCJHLkM-35" style="edgeStyle=orthogonalEdgeStyle;rounded=0;orthogonalLoop=1;jettySize=auto;html=1;entryX=0.5;entryY=0;entryDx=0;entryDy=0;" parent="1" source="b7DNo_pChQtwdVCJHLkM-16" target="b7DNo_pChQtwdVCJHLkM-19" edge="1">
          <mxGeometry relative="1" as="geometry" />
        </mxCell>
        <mxCell id="b7DNo_pChQtwdVCJHLkM-16" value="Arranjo de Acomodação" style="rounded=1;whiteSpace=wrap;html=1;" parent="1" vertex="1">
          <mxGeometry x="73" y="1668" width="120" height="60" as="geometry" />
        </mxCell>
        <mxCell id="b7DNo_pChQtwdVCJHLkM-19" value="Item de acomodação" style="rounded=1;whiteSpace=wrap;html=1;" parent="1" vertex="1">
          <mxGeometry x="73" y="1778" width="120" height="60" as="geometry" />
        </mxCell>
        <mxCell id="b7DNo_pChQtwdVCJHLkM-27" value="Celebra" style="text;html=1;align=left;verticalAlign=middle;whiteSpace=wrap;rounded=0;" parent="1" vertex="1">
          <mxGeometry x="143" y="1298" width="60" height="30" as="geometry" />
        </mxCell>
        <mxCell id="b7DNo_pChQtwdVCJHLkM-28" value="Abrange" style="text;html=1;align=left;verticalAlign=middle;whiteSpace=wrap;rounded=0;" parent="1" vertex="1">
          <mxGeometry x="143" y="1398" width="60" height="30" as="geometry" />
        </mxCell>
        <mxCell id="b7DNo_pChQtwdVCJHLkM-36" value="Comporta" style="text;html=1;align=left;verticalAlign=middle;whiteSpace=wrap;rounded=0;" parent="1" vertex="1">
          <mxGeometry x="143" y="1508" width="60" height="30" as="geometry" />
        </mxCell>
        <mxCell id="b7DNo_pChQtwdVCJHLkM-37" value="Possibilita" style="text;html=1;align=left;verticalAlign=middle;whiteSpace=wrap;rounded=0;" parent="1" vertex="1">
          <mxGeometry x="143" y="1623" width="60" height="30" as="geometry" />
        </mxCell>
        <mxCell id="b7DNo_pChQtwdVCJHLkM-38" value="Contém" style="text;html=1;align=left;verticalAlign=middle;whiteSpace=wrap;rounded=0;" parent="1" vertex="1">
          <mxGeometry x="143" y="1728" width="60" height="30" as="geometry" />
        </mxCell>
        <mxCell id="b7DNo_pChQtwdVCJHLkM-59" style="edgeStyle=orthogonalEdgeStyle;rounded=0;orthogonalLoop=1;jettySize=auto;html=1;" parent="1" source="b7DNo_pChQtwdVCJHLkM-39" target="b7DNo_pChQtwdVCJHLkM-50" edge="1">
          <mxGeometry relative="1" as="geometry" />
        </mxCell>
        <mxCell id="b7DNo_pChQtwdVCJHLkM-60" style="edgeStyle=orthogonalEdgeStyle;rounded=0;orthogonalLoop=1;jettySize=auto;html=1;" parent="1" source="b7DNo_pChQtwdVCJHLkM-39" target="b7DNo_pChQtwdVCJHLkM-54" edge="1">
          <mxGeometry relative="1" as="geometry" />
        </mxCell>
        <mxCell id="b7DNo_pChQtwdVCJHLkM-78" style="edgeStyle=orthogonalEdgeStyle;rounded=0;orthogonalLoop=1;jettySize=auto;html=1;exitX=0.5;exitY=1;exitDx=0;exitDy=0;" parent="1" source="b7DNo_pChQtwdVCJHLkM-39" target="b7DNo_pChQtwdVCJHLkM-52" edge="1">
          <mxGeometry relative="1" as="geometry" />
        </mxCell>
        <mxCell id="b7DNo_pChQtwdVCJHLkM-79" style="edgeStyle=orthogonalEdgeStyle;rounded=0;orthogonalLoop=1;jettySize=auto;html=1;exitX=0.5;exitY=1;exitDx=0;exitDy=0;" parent="1" source="b7DNo_pChQtwdVCJHLkM-39" target="b7DNo_pChQtwdVCJHLkM-53" edge="1">
          <mxGeometry relative="1" as="geometry" />
        </mxCell>
        <mxCell id="b7DNo_pChQtwdVCJHLkM-39" value="" style="shape=image;verticalLabelPosition=bottom;labelBackgroundColor=default;verticalAlign=top;aspect=fixed;imageAspect=0;image=data:image/png,iVBORw0KGgoAAAANSUhEUgAAAGQAAABkCAYAAABw4pVUAAAACXBIWXMAAAsTAAALEwEAmpwYAAAG00lEQVR4nO1cXahUVRQ+1a0IBJW8d9aae9UeFEqIiAoiSYossp4q7MeKgv4eEsIgLLLoKYXqwaeQKOmHCKF6i9KH0Vl7rgZCQZJlRZERlFKZWt7Z23asM2fuPTN35vzNnDPnzKwPzsudvdZea3977bXW3qLj9Ah70DnfqNIzvehgefvJiguTytdrsKau8PrefICnnR5gCJ+zh1Zd4AwaRpUe1grOWLW0nETeVnCJVnjKKHwssQ0EnxmCT5PL4+Oa4LStlSaSyNvKOGiCfwzBQ84gYa1zrib4xii0WuGrSXRoBVs9+R9sxRmLKz9TK1+pCf9jHfUaXBNX3u5yztMKjjRsgJedBNCEr7nyBN+xPmdQMKp8DxviLegpW4XxOPL24OKFWsGfTR1G4f3xbYCP5+ThowTyD8z6QHjC0rLFceTt5+WLtcKTszZQ6W4nS/BZb/dOrtTV8k2G8CvfYvIOe7NexdV8fHH0dJS3zrn8e71Wvk4r3NEiT/i1pvJa1h+UU2xl+aIZmrzCVOFBTXjWJ3+W/8a/8ZhQH6i8luds9QF3sG2RfKjiavbZL89rwmsT5kPPMARbtMJfm8dD2KcJZjiEOeGyvGf8Ef57FHnTWBye7yV3EQ4uXmgU7OZdHFneHQu7WZZ1sC7WGV0eZthmtt31oQZr2KeoPvBaufMRbOk7Ie5ZS/h6HGcM4Qa/Dk14h5v8ohPyNldAszbsL12iCQ7HIOR7Oz21Yla+4oy1R2Xw/HDG1Mr3tvig4C6t4N8YNuz0+9B3GMLNYVGiCf/WCm/pJF+niWu1gmMRCN1urXNOuzyf8YagGmExDnTKaayTIyUCGX80o7sdmko3tOW+bjq2OVnAEG4MIOOvmemJy4PkbRVWscPdnYFNgfLTUxcZBXsC5PfwmEAfFGwKIoNtDJJnH9nXrjYQbnSyAu/+gJ19Oqz083ZpV2e0gttCbSDcGWDDW6HytdLtAZvqRKfonF8uu/1TNx03O1nBED4bFKp2P1wW6MzeyZWB4U7hSdAo+DJA/otwH+CFQB98uaejD1VYFewDbnaygib4wLcbD3ND1VL9tCXzdhiC9XPRgCe95vCQz6EPg+S5nPRXOmxPm00zYSUnz+Gb7xDb0NpPwPpgH3CDP6IaazBXcLA9TlZwy1eFpzg5Nh13GySC7dwLaIWvhMhv9QqDXZZwmStfccbcKwwFxzThj0HydQVXz22GueKBk3AzcuqEVwXaQPiTm5gJNzfvoOy+JchVWMOH4K6dbya8svYdvjqZvRMjfIqPY63gWycL2Mr4Am6GmkZ0qaICqwt2tlnbz9NfK01ogjeCGjtNcKeh0pOdchX/jX/jMd19WL7InaPL3ZXXM4UQAtvY1876x8FbowVOVnDPUPccBqUJftEKdVgZOKyfJqzzGvBacP4Ly6H9JaIGy7WC9/1XFvJhO0FnNcF7dl95aapkuKFM+JsQgBEjB45rVboxFTLc7jTGPZR8OFvxdev4ezumCI53qLX38V2PnZ6aTPKWMSywFWfMHpicMlW8zyigeZGi8Pe+Hl+cMzpcHD7StwmGDIbgCU70bXnl3b4o54qhQwJ/tC/Kh5wU05bobQ0v7V2xghdbjymo9sXiEYBRWGndyPB8H5SCalHa9j7gv6xr1OJxa3g4qgnWhdmhC6jff73iEUIRlz3AUIKjfqWcwKOMi+WUgp/j2mEKoJ8TeVw7QtGenLpVU72WuWF2mALqb/x7L380YT3iskc3NEuHhkF/XDtCkdbEozLeCCENCCE52ZF5Gy8R4kEIKWjSHZmkXpQFG1pCiti4ZaF/kISsS+IUO6OrcGuYHbqg+gdGiKAzhJCcQQjJGYSQnGFwSb2A7xVZ6B9klVXIsnRoy96kzkQ11BRUvxCihJBEO2FUxpu8HFn90lv08UKIByEkJzsyb+NzEyFFqYLS1i+EKCGk0I3b0DaGRX2vaELeQ0YEZlARIugMISRnEEJyhsEl9YK+VzQh7yE5KUuHtuxN6kxUQ01B9QshSghJtBNGZbzJy5HVL71FHy+EeBBCcrIj8zY+NxFSlCoobf1CiBJCCt24DW1jWNT3iibkPWREYAYVIYLOEEJyBiEkZxhcUi/oe0UT8h6Sk7J0aMvepM5ENdQUVL8QooSQRDthVMabvBxZ/dJb9PFCiAchJCc7Mm/jcxMhaVdBTsrj+2W/EOJh5AlJu3EzKUfI0DWGab9XmPQJkf8vKw5MyoSkhYFFSNowQogQ0g9IhBQ8srNXmJEdpqB2Z68wIztMQe2OrVA+TKWjF0JUQQnppYOVD+c1wf0gJFEHKx8mupEQCAQCgUAgEAgEAidj/A+8saMDhG9CPQAAAABJRU5ErkJggg==;" parent="1" vertex="1">
          <mxGeometry x="220.5" y="1440.5" width="65" height="65" as="geometry" />
        </mxCell>
        <mxCell id="b7DNo_pChQtwdVCJHLkM-73" style="edgeStyle=orthogonalEdgeStyle;rounded=0;orthogonalLoop=1;jettySize=auto;html=1;entryX=0.5;entryY=0;entryDx=0;entryDy=0;" parent="1" source="b7DNo_pChQtwdVCJHLkM-42" target="b7DNo_pChQtwdVCJHLkM-67" edge="1">
          <mxGeometry relative="1" as="geometry" />
        </mxCell>
        <mxCell id="b7DNo_pChQtwdVCJHLkM-74" style="edgeStyle=orthogonalEdgeStyle;rounded=0;orthogonalLoop=1;jettySize=auto;html=1;" parent="1" source="b7DNo_pChQtwdVCJHLkM-42" target="b7DNo_pChQtwdVCJHLkM-69" edge="1">
          <mxGeometry relative="1" as="geometry" />
        </mxCell>
        <mxCell id="b7DNo_pChQtwdVCJHLkM-75" style="edgeStyle=orthogonalEdgeStyle;rounded=0;orthogonalLoop=1;jettySize=auto;html=1;entryX=0.5;entryY=0;entryDx=0;entryDy=0;" parent="1" source="b7DNo_pChQtwdVCJHLkM-42" target="b7DNo_pChQtwdVCJHLkM-70" edge="1">
          <mxGeometry relative="1" as="geometry" />
        </mxCell>
        <mxCell id="b7DNo_pChQtwdVCJHLkM-76" style="edgeStyle=orthogonalEdgeStyle;rounded=0;orthogonalLoop=1;jettySize=auto;html=1;entryX=0.25;entryY=0;entryDx=0;entryDy=0;exitX=0.5;exitY=1;exitDx=0;exitDy=0;" parent="1" source="b7DNo_pChQtwdVCJHLkM-42" target="b7DNo_pChQtwdVCJHLkM-71" edge="1">
          <mxGeometry relative="1" as="geometry" />
        </mxCell>
        <mxCell id="b7DNo_pChQtwdVCJHLkM-77" style="edgeStyle=orthogonalEdgeStyle;rounded=0;orthogonalLoop=1;jettySize=auto;html=1;entryX=0.5;entryY=0;entryDx=0;entryDy=0;exitX=0.5;exitY=1;exitDx=0;exitDy=0;" parent="1" source="b7DNo_pChQtwdVCJHLkM-42" target="b7DNo_pChQtwdVCJHLkM-68" edge="1">
          <mxGeometry relative="1" as="geometry" />
        </mxCell>
        <mxCell id="b7DNo_pChQtwdVCJHLkM-42" value="" style="shape=image;verticalLabelPosition=bottom;labelBackgroundColor=default;verticalAlign=top;aspect=fixed;imageAspect=0;image=data:image/png,iVBORw0KGgoAAAANSUhEUgAAAGQAAABkCAYAAABw4pVUAAAACXBIWXMAAAsTAAALEwEAmpwYAAAG00lEQVR4nO1cXahUVRQ+1a0IBJW8d9aae9UeFEqIiAoiSYossp4q7MeKgv4eEsIgLLLoKYXqwaeQKOmHCKF6i9KH0Vl7rgZCQZJlRZERlFKZWt7Z23asM2fuPTN35vzNnDPnzKwPzsudvdZea3977bXW3qLj9Ah70DnfqNIzvehgefvJiguTytdrsKau8PrefICnnR5gCJ+zh1Zd4AwaRpUe1grOWLW0nETeVnCJVnjKKHwssQ0EnxmCT5PL4+Oa4LStlSaSyNvKOGiCfwzBQ84gYa1zrib4xii0WuGrSXRoBVs9+R9sxRmLKz9TK1+pCf9jHfUaXBNX3u5yztMKjjRsgJedBNCEr7nyBN+xPmdQMKp8DxviLegpW4XxOPL24OKFWsGfTR1G4f3xbYCP5+ThowTyD8z6QHjC0rLFceTt5+WLtcKTszZQ6W4nS/BZb/dOrtTV8k2G8CvfYvIOe7NexdV8fHH0dJS3zrn8e71Wvk4r3NEiT/i1pvJa1h+UU2xl+aIZmrzCVOFBTXjWJ3+W/8a/8ZhQH6i8luds9QF3sG2RfKjiavbZL89rwmsT5kPPMARbtMJfm8dD2KcJZjiEOeGyvGf8Ef57FHnTWBye7yV3EQ4uXmgU7OZdHFneHQu7WZZ1sC7WGV0eZthmtt31oQZr2KeoPvBaufMRbOk7Ie5ZS/h6HGcM4Qa/Dk14h5v8ohPyNldAszbsL12iCQ7HIOR7Oz21Yla+4oy1R2Xw/HDG1Mr3tvig4C6t4N8YNuz0+9B3GMLNYVGiCf/WCm/pJF+niWu1gmMRCN1urXNOuzyf8YagGmExDnTKaayTIyUCGX80o7sdmko3tOW+bjq2OVnAEG4MIOOvmemJy4PkbRVWscPdnYFNgfLTUxcZBXsC5PfwmEAfFGwKIoNtDJJnH9nXrjYQbnSyAu/+gJ19Oqz083ZpV2e0gttCbSDcGWDDW6HytdLtAZvqRKfonF8uu/1TNx03O1nBED4bFKp2P1wW6MzeyZWB4U7hSdAo+DJA/otwH+CFQB98uaejD1VYFewDbnaygib4wLcbD3ND1VL9tCXzdhiC9XPRgCe95vCQz6EPg+S5nPRXOmxPm00zYSUnz+Gb7xDb0NpPwPpgH3CDP6IaazBXcLA9TlZwy1eFpzg5Nh13GySC7dwLaIWvhMhv9QqDXZZwmStfccbcKwwFxzThj0HydQVXz22GueKBk3AzcuqEVwXaQPiTm5gJNzfvoOy+JchVWMOH4K6dbya8svYdvjqZvRMjfIqPY63gWycL2Mr4Am6GmkZ0qaICqwt2tlnbz9NfK01ogjeCGjtNcKeh0pOdchX/jX/jMd19WL7InaPL3ZXXM4UQAtvY1876x8FbowVOVnDPUPccBqUJftEKdVgZOKyfJqzzGvBacP4Ly6H9JaIGy7WC9/1XFvJhO0FnNcF7dl95aapkuKFM+JsQgBEjB45rVboxFTLc7jTGPZR8OFvxdev4ezumCI53qLX38V2PnZ6aTPKWMSywFWfMHpicMlW8zyigeZGi8Pe+Hl+cMzpcHD7StwmGDIbgCU70bXnl3b4o54qhQwJ/tC/Kh5wU05bobQ0v7V2xghdbjymo9sXiEYBRWGndyPB8H5SCalHa9j7gv6xr1OJxa3g4qgnWhdmhC6jff73iEUIRlz3AUIKjfqWcwKOMi+WUgp/j2mEKoJ8TeVw7QtGenLpVU72WuWF2mALqb/x7L380YT3iskc3NEuHhkF/XDtCkdbEozLeCCENCCE52ZF5Gy8R4kEIKWjSHZmkXpQFG1pCiti4ZaF/kISsS+IUO6OrcGuYHbqg+gdGiKAzhJCcQQjJGYSQnGFwSb2A7xVZ6B9klVXIsnRoy96kzkQ11BRUvxCihJBEO2FUxpu8HFn90lv08UKIByEkJzsyb+NzEyFFqYLS1i+EKCGk0I3b0DaGRX2vaELeQ0YEZlARIugMISRnEEJyhsEl9YK+VzQh7yE5KUuHtuxN6kxUQ01B9QshSghJtBNGZbzJy5HVL71FHy+EeBBCcrIj8zY+NxFSlCoobf1CiBJCCt24DW1jWNT3iibkPWREYAYVIYLOEEJyBiEkZxhcUi/oe0UT8h6Sk7J0aMvepM5ENdQUVL8QooSQRDthVMabvBxZ/dJb9PFCiAchJCc7Mm/jcxMhaVdBTsrj+2W/EOJh5AlJu3EzKUfI0DWGab9XmPQJkf8vKw5MyoSkhYFFSNowQogQ0g9IhBQ8srNXmJEdpqB2Z68wIztMQe2OrVA+TKWjF0JUQQnppYOVD+c1wf0gJFEHKx8mupEQCAQCgUAgEAgEAidj/A+8saMDhG9CPQAAAABJRU5ErkJggg==;" parent="1" vertex="1">
          <mxGeometry x="563" y="1440.5" width="65" height="65" as="geometry" />
        </mxCell>
        <mxCell id="b7DNo_pChQtwdVCJHLkM-45" style="edgeStyle=orthogonalEdgeStyle;rounded=0;orthogonalLoop=1;jettySize=auto;html=1;" parent="1" source="b7DNo_pChQtwdVCJHLkM-43" edge="1">
          <mxGeometry relative="1" as="geometry">
            <mxPoint x="253" y="1438" as="targetPoint" />
          </mxGeometry>
        </mxCell>
        <mxCell id="b7DNo_pChQtwdVCJHLkM-49" style="edgeStyle=orthogonalEdgeStyle;rounded=0;orthogonalLoop=1;jettySize=auto;html=1;entryX=0.5;entryY=0;entryDx=0;entryDy=0;" parent="1" source="b7DNo_pChQtwdVCJHLkM-43" target="b7DNo_pChQtwdVCJHLkM-48" edge="1">
          <mxGeometry relative="1" as="geometry" />
        </mxCell>
        <mxCell id="b7DNo_pChQtwdVCJHLkM-43" value="" style="shape=image;verticalLabelPosition=bottom;labelBackgroundColor=default;verticalAlign=top;aspect=fixed;imageAspect=0;image=data:image/png,iVBORw0KGgoAAAANSUhEUgAAAGQAAABkCAYAAABw4pVUAAAACXBIWXMAAAsTAAALEwEAmpwYAAAJuklEQVR4nO1caZAkRRXOBfFGWJadeq9nlvVYQl3xDO8QXQ0Nbw2PULxARUXF8EZUJNbghyFiYHiFR3guorheGMsS4DVMv1c9szAQixCBggKrKOLNyrHdmWwar7oXurOzqqumZ6aOri+ifkx3Z2XV+/K9fFeOUjVq1KhRo8YywzDaMl6a0RjGN6iqIW/BmpqU6hBiqqgpeQvU1KQkE6IKDlN1TakKIaYqpJSdEM2oh/6m4DWqrCg9ISG8WhN2KqMpZSdEKaUqRUoVCKkUKVUhpDKkVImQSpBSNUJKT0oVCSk1KVUlpLSkVJmQUpJSdUJKR8okEFIqUiaFkNKQMkmElIKUSSOk8KRMIiGFJmVSCSksKZNMSCFJKTshZoWu3EipCcEkUnRNSEE0JDeLkfsDZERNyITB5L1Ac3+AgiF3eeT+AAVD7vLI/QEKBsfL+l+uD1AToiJ5aML9muFc25qZjpObteqgTjN4iiE4XTNu0wzfNyG+17Zm7lcTsowwDLs7jMfGfW93NdYZxo9rwhu8Hh/hnLVqzRgPUGtIP+x2dbD38zCY0gRnihkbGeUTvFAtFTUhyRATZAhP1YS3po6BCE5SS0VNyIjEI8Of4lMrcGeMhrxSLRU1IcOwIWw0hBck5LiuNwzvtLzuUMO4MEgG7pXP1VJREzK4fxiGD2rG2+JNEpxmr958b/l9O2w8XhO0Ha35lBoHVSHELhzxIN2EF0jKXDeDl4iw7Ox6SD2+NbPJELRS7A+/srPqXnZ24+Ga4feO5vxVniNXQlY12Ud4gQhjQJCLeH9NeLYmuCPGnrc1wx5DEBqGn2qCL8gmbRjeqCnYEhHB+PY470kT3ui5p9xj5/DnjZeORUapCCG8zF4cPMAlwxA0V2I+zfAPIc0uqkMM4+zo3+OXxyajLIRoxuvt/FQwZO8Jzl+hOX8iccfdc83ikbGBYLRYILQXbrrPRBCiCf5pufFwd17N+CXPqt6jCc4zDL/QBNekCeIG58JbDcHxvvds0/RjfWZR5syyV2UWqCoBDONHPKv0Cru49jD3t2Lm7CXTR3cIn2EI3yFuaQwhC5amHpow59s04V0OGf9ph8Exy/1ypSLEhI3jJPnnrOwbLW9oJI1rN6cfowmu82jFfkmJyF4ROyfBScNzwu2dsPH05X/BEhHSacKzNMM+Z5X+2zZhc9I408TX+WILMYea4UWJYyk4eYgMhn3iYi/7C5aJENuEzSJ8VzBCUuyY7epgzfjZGBM1bwmPSppTsrox+9rnV+Qly0KI5Q0NNx6IVm3YOC52zOzGww3BxV6BMnzxQLTtHWvVGoltYjd/Rq1DfP5EEmIlX0RwxbBgglPix6x/mHhZHiLuNBy8OXG+RXWIJjwnjUcmntdEEWIlKCO4yLfC48aIN9UN6obMzE0dhicmz7f2MMPwS4/w/2sYtva6Gfvv+eekqmLlCNEM3/S4t+fHFZG6m/fgpt8dg7vs3JGYNJedDx5sGK/2mKeb29x4XPf+8O5hbYHdY+evlpOQUaqdQvU7sqqH7wtbvRtxTM1aTJjrDR3YazTBt6S2EefadrjxNE34N48mXmvngof0/1YznuVZJBcluc1jCXTc8dkv+MDQPQlO8Pj919kmrPc1G0TJvnTk3+AmAKO5/Fo1Z1szR3jnY/yhh7xvZJVdKoGOOz5zjmr7oPkR/95zPODvkpV15xZPqZsqyaqVcF7kuflWe/f77yXlpuzsxvsaBvZoyieyym+kQMcdn+kifP/Ai14yfbREwI5wbpd2G19KJM6tTaktHc9n+zXjGWm6RqKEI8O17njThDdllWGiQFWO0I4pEK9GM748xhviFBp4liZ8hSQifQR46uMD50FESyRvJntQJ4RnDj1Ha2aT69F16y/Bs0tPiOV1h7r/rs+3v1g6aq0hvNQjUHcfWOgfJzGDYVxMIO87/cUvO9fYIN5Z//19Lq7ks9wscJR0pOBRpSakQ1NPdVbaNa7p6EbfeNmwQOFKQ3iiYw53unOIwA3Bh12z2Dfm0m4SEp/ni2V8WtJ3LM7NBO8Z5WoXmpD2HD7BeZbF/u97HR7zHkEuiNZIGtyx53vjBCKRvNTG4/YWNwDskfXbpI3eEHzIs1Aut7PrH1hKQuz8VNC/yrrxQ7Dl7mY1XxlVKnW9oKyXf3Lr3wtS5vXOZ9UaEzbe4iYsY64dQvqod5AyrofInW4fQCkIERjC3wztC4Q/jnExW27/k9QtvMJMEIhU+wzj9ph9xRjCj6Xt1e22EeGOYa2Dr6cu8RaJEC222xNt+zZwX9lUgjZfK49m/NrIubnxMk3wlz4NvUWHwXOyvkPkjnucB9noNeG3OyE8qTSECCS4SmFCRMjfVY4gpE7hbq59GnW6GgFxp2U1GwYaJ2koi8XXPtR7bp1IyriEpBFeomDD4MXuPTXDq5J6at3AUlPjud32zoR5RPOo8Va1ShC3V7Qi5rlPLS4hBDe5CcOoC9FpuxFfXzP+0V1thuDn3qSiBJVOx3pUWBrnqEBGtFtTj5ZSgWSM+xZGp9MKnlxYQgzDbveemvGrHpNzvA3xEd3axCiS8Q8SsHWzuE7QRrhX2kzVKiIqJVOwRTRa3PvEH+dOSHMw9yOrZ7ipoNsVGLm2DJ9LIOIu+b7f1e2lTgYLS4w3u2n1wmBcQlbgeS507O2u3qGZ1xvCqxL2k6tEI7z3JHyPx1T+To6nqaKhSITYucaG4RQEbvP1U/V9f5sUp0YViDThZzxmsDX2Ic0qE2JEC1I7A2KecFta97Rn7s7NUhLOBQUj5MQUROwXz+pAnTsLpKBlCH/tuedXVFFQFELaYXCMeEfxpgn2iUZINnaceXq1lCuH54DTVBFQBEI6jMfe06kOl0s9W8q2Euxpgh9IQOerby8VYuaiQzyu5jG8S+WNIhBiODilJ5RzpF69ipH0YGtqlGHGT0pOTE0yIdaqg3xNDCsNKTjFHG3esewNcGUiJE9I97t7kvYedxq2SpVyVR9o0gkRSFpDE/zL79XBHVGrEcEJdh4emanYtBTUhHQhp6f6mxri3W5oSzlXilqy3xhuvFYaKApzxrBKsFETRHCyeHhpA9Q+E2eijIJknxk+LRq1lFipJsQDSf8bwo8mxUUZrh2Z/l1TrSHxEEFG/VyE7zMMP5PazVJIkbqISouakOyRfvSf5KRjheBM0QDRpLjScVT/7zvzPhI1IYNw/0FBWkhAK3tGdEqY8QxD+CM5ppD56FtNyCCinFmvlzeXLHBNyCCcVMotarVRE1IweeT+AAVD7vJYBj+70peqCcHcSagJ4fwFXxPC+Qu7kITUqFGjRo0aKhn/B+GO/ojqpoKPAAAAAElFTkSuQmCC;" parent="1" vertex="1">
          <mxGeometry x="223" y="1338" width="60" height="60" as="geometry" />
        </mxCell>
        <mxCell id="b7DNo_pChQtwdVCJHLkM-47" style="edgeStyle=orthogonalEdgeStyle;rounded=0;orthogonalLoop=1;jettySize=auto;html=1;entryX=0.5;entryY=0;entryDx=0;entryDy=0;" parent="1" source="b7DNo_pChQtwdVCJHLkM-44" target="b7DNo_pChQtwdVCJHLkM-42" edge="1">
          <mxGeometry relative="1" as="geometry" />
        </mxCell>
        <mxCell id="b7DNo_pChQtwdVCJHLkM-44" value="" style="shape=image;verticalLabelPosition=bottom;labelBackgroundColor=default;verticalAlign=top;aspect=fixed;imageAspect=0;image=data:image/png,iVBORw0KGgoAAAANSUhEUgAAAGQAAABkCAYAAABw4pVUAAAACXBIWXMAAAsTAAALEwEAmpwYAAAJuklEQVR4nO1caZAkRRXOBfFGWJadeq9nlvVYQl3xDO8QXQ0Nbw2PULxARUXF8EZUJNbghyFiYHiFR3guorheGMsS4DVMv1c9szAQixCBggKrKOLNyrHdmWwar7oXurOzqqumZ6aOri+ifkx3Z2XV+/K9fFeOUjVq1KhRo8YywzDaMl6a0RjGN6iqIW/BmpqU6hBiqqgpeQvU1KQkE6IKDlN1TakKIaYqpJSdEM2oh/6m4DWqrCg9ISG8WhN2KqMpZSdEKaUqRUoVCKkUKVUhpDKkVImQSpBSNUJKT0oVCSk1KVUlpLSkVJmQUpJSdUJKR8okEFIqUiaFkNKQMkmElIKUSSOk8KRMIiGFJmVSCSksKZNMSCFJKTshZoWu3EipCcEkUnRNSEE0JDeLkfsDZERNyITB5L1Ac3+AgiF3eeT+AAVD7vLI/QEKBsfL+l+uD1AToiJ5aML9muFc25qZjpObteqgTjN4iiE4XTNu0wzfNyG+17Zm7lcTsowwDLs7jMfGfW93NdYZxo9rwhu8Hh/hnLVqzRgPUGtIP+x2dbD38zCY0gRnihkbGeUTvFAtFTUhyRATZAhP1YS3po6BCE5SS0VNyIjEI8Of4lMrcGeMhrxSLRU1IcOwIWw0hBck5LiuNwzvtLzuUMO4MEgG7pXP1VJREzK4fxiGD2rG2+JNEpxmr958b/l9O2w8XhO0Ha35lBoHVSHELhzxIN2EF0jKXDeDl4iw7Ox6SD2+NbPJELRS7A+/srPqXnZ24+Ga4feO5vxVniNXQlY12Ud4gQhjQJCLeH9NeLYmuCPGnrc1wx5DEBqGn2qCL8gmbRjeqCnYEhHB+PY470kT3ui5p9xj5/DnjZeORUapCCG8zF4cPMAlwxA0V2I+zfAPIc0uqkMM4+zo3+OXxyajLIRoxuvt/FQwZO8Jzl+hOX8iccfdc83ikbGBYLRYILQXbrrPRBCiCf5pufFwd17N+CXPqt6jCc4zDL/QBNekCeIG58JbDcHxvvds0/RjfWZR5syyV2UWqCoBDONHPKv0Cru49jD3t2Lm7CXTR3cIn2EI3yFuaQwhC5amHpow59s04V0OGf9ph8Exy/1ypSLEhI3jJPnnrOwbLW9oJI1rN6cfowmu82jFfkmJyF4ROyfBScNzwu2dsPH05X/BEhHSacKzNMM+Z5X+2zZhc9I408TX+WILMYea4UWJYyk4eYgMhn3iYi/7C5aJENuEzSJ8VzBCUuyY7epgzfjZGBM1bwmPSppTsrox+9rnV+Qly0KI5Q0NNx6IVm3YOC52zOzGww3BxV6BMnzxQLTtHWvVGoltYjd/Rq1DfP5EEmIlX0RwxbBgglPix6x/mHhZHiLuNBy8OXG+RXWIJjwnjUcmntdEEWIlKCO4yLfC48aIN9UN6obMzE0dhicmz7f2MMPwS4/w/2sYtva6Gfvv+eekqmLlCNEM3/S4t+fHFZG6m/fgpt8dg7vs3JGYNJedDx5sGK/2mKeb29x4XPf+8O5hbYHdY+evlpOQUaqdQvU7sqqH7wtbvRtxTM1aTJjrDR3YazTBt6S2EefadrjxNE34N48mXmvngof0/1YznuVZJBcluc1jCXTc8dkv+MDQPQlO8Pj919kmrPc1G0TJvnTk3+AmAKO5/Fo1Z1szR3jnY/yhh7xvZJVdKoGOOz5zjmr7oPkR/95zPODvkpV15xZPqZsqyaqVcF7kuflWe/f77yXlpuzsxvsaBvZoyieyym+kQMcdn+kifP/Ai14yfbREwI5wbpd2G19KJM6tTaktHc9n+zXjGWm6RqKEI8O17njThDdllWGiQFWO0I4pEK9GM748xhviFBp4liZ8hSQifQR46uMD50FESyRvJntQJ4RnDj1Ha2aT69F16y/Bs0tPiOV1h7r/rs+3v1g6aq0hvNQjUHcfWOgfJzGDYVxMIO87/cUvO9fYIN5Z//19Lq7ks9wscJR0pOBRpSakQ1NPdVbaNa7p6EbfeNmwQOFKQ3iiYw53unOIwA3Bh12z2Dfm0m4SEp/ni2V8WtJ3LM7NBO8Z5WoXmpD2HD7BeZbF/u97HR7zHkEuiNZIGtyx53vjBCKRvNTG4/YWNwDskfXbpI3eEHzIs1Aut7PrH1hKQuz8VNC/yrrxQ7Dl7mY1XxlVKnW9oKyXf3Lr3wtS5vXOZ9UaEzbe4iYsY64dQvqod5AyrofInW4fQCkIERjC3wztC4Q/jnExW27/k9QtvMJMEIhU+wzj9ph9xRjCj6Xt1e22EeGOYa2Dr6cu8RaJEC222xNt+zZwX9lUgjZfK49m/NrIubnxMk3wlz4NvUWHwXOyvkPkjnucB9noNeG3OyE8qTSECCS4SmFCRMjfVY4gpE7hbq59GnW6GgFxp2U1GwYaJ2koi8XXPtR7bp1IyriEpBFeomDD4MXuPTXDq5J6at3AUlPjud32zoR5RPOo8Va1ShC3V7Qi5rlPLS4hBDe5CcOoC9FpuxFfXzP+0V1thuDn3qSiBJVOx3pUWBrnqEBGtFtTj5ZSgWSM+xZGp9MKnlxYQgzDbveemvGrHpNzvA3xEd3axCiS8Q8SsHWzuE7QRrhX2kzVKiIqJVOwRTRa3PvEH+dOSHMw9yOrZ7ipoNsVGLm2DJ9LIOIu+b7f1e2lTgYLS4w3u2n1wmBcQlbgeS507O2u3qGZ1xvCqxL2k6tEI7z3JHyPx1T+To6nqaKhSITYucaG4RQEbvP1U/V9f5sUp0YViDThZzxmsDX2Ic0qE2JEC1I7A2KecFta97Rn7s7NUhLOBQUj5MQUROwXz+pAnTsLpKBlCH/tuedXVFFQFELaYXCMeEfxpgn2iUZINnaceXq1lCuH54DTVBFQBEI6jMfe06kOl0s9W8q2Euxpgh9IQOerby8VYuaiQzyu5jG8S+WNIhBiODilJ5RzpF69ipH0YGtqlGHGT0pOTE0yIdaqg3xNDCsNKTjFHG3esewNcGUiJE9I97t7kvYedxq2SpVyVR9o0gkRSFpDE/zL79XBHVGrEcEJdh4emanYtBTUhHQhp6f6mxri3W5oSzlXilqy3xhuvFYaKApzxrBKsFETRHCyeHhpA9Q+E2eijIJknxk+LRq1lFipJsQDSf8bwo8mxUUZrh2Z/l1TrSHxEEFG/VyE7zMMP5PazVJIkbqISouakOyRfvSf5KRjheBM0QDRpLjScVT/7zvzPhI1IYNw/0FBWkhAK3tGdEqY8QxD+CM5ppD56FtNyCCinFmvlzeXLHBNyCCcVMotarVRE1IweeT+AAVD7vJYBj+70peqCcHcSagJ4fwFXxPC+Qu7kITUqFGjRo0aKhn/B+GO/ojqpoKPAAAAAElFTkSuQmCC;" parent="1" vertex="1">
          <mxGeometry x="565" y="1338" width="60" height="60" as="geometry" />
        </mxCell>
        <mxCell id="b7DNo_pChQtwdVCJHLkM-65" style="edgeStyle=orthogonalEdgeStyle;rounded=0;orthogonalLoop=1;jettySize=auto;html=1;entryX=0.5;entryY=0;entryDx=0;entryDy=0;" parent="1" source="b7DNo_pChQtwdVCJHLkM-48" target="b7DNo_pChQtwdVCJHLkM-63" edge="1">
          <mxGeometry relative="1" as="geometry" />
        </mxCell>
        <mxCell id="b7DNo_pChQtwdVCJHLkM-66" style="edgeStyle=orthogonalEdgeStyle;rounded=0;orthogonalLoop=1;jettySize=auto;html=1;" parent="1" source="b7DNo_pChQtwdVCJHLkM-48" target="b7DNo_pChQtwdVCJHLkM-64" edge="1">
          <mxGeometry relative="1" as="geometry" />
        </mxCell>
        <mxCell id="b7DNo_pChQtwdVCJHLkM-48" value="" style="shape=image;verticalLabelPosition=bottom;labelBackgroundColor=default;verticalAlign=top;aspect=fixed;imageAspect=0;image=data:image/png,iVBORw0KGgoAAAANSUhEUgAAAGQAAABkCAYAAABw4pVUAAAACXBIWXMAAAsTAAALEwEAmpwYAAAG00lEQVR4nO1cXahUVRQ+1a0IBJW8d9aae9UeFEqIiAoiSYossp4q7MeKgv4eEsIgLLLoKYXqwaeQKOmHCKF6i9KH0Vl7rgZCQZJlRZERlFKZWt7Z23asM2fuPTN35vzNnDPnzKwPzsudvdZea3977bXW3qLj9Ah70DnfqNIzvehgefvJiguTytdrsKau8PrefICnnR5gCJ+zh1Zd4AwaRpUe1grOWLW0nETeVnCJVnjKKHwssQ0EnxmCT5PL4+Oa4LStlSaSyNvKOGiCfwzBQ84gYa1zrib4xii0WuGrSXRoBVs9+R9sxRmLKz9TK1+pCf9jHfUaXBNX3u5yztMKjjRsgJedBNCEr7nyBN+xPmdQMKp8DxviLegpW4XxOPL24OKFWsGfTR1G4f3xbYCP5+ThowTyD8z6QHjC0rLFceTt5+WLtcKTszZQ6W4nS/BZb/dOrtTV8k2G8CvfYvIOe7NexdV8fHH0dJS3zrn8e71Wvk4r3NEiT/i1pvJa1h+UU2xl+aIZmrzCVOFBTXjWJ3+W/8a/8ZhQH6i8luds9QF3sG2RfKjiavbZL89rwmsT5kPPMARbtMJfm8dD2KcJZjiEOeGyvGf8Ef57FHnTWBye7yV3EQ4uXmgU7OZdHFneHQu7WZZ1sC7WGV0eZthmtt31oQZr2KeoPvBaufMRbOk7Ie5ZS/h6HGcM4Qa/Dk14h5v8ohPyNldAszbsL12iCQ7HIOR7Oz21Yla+4oy1R2Xw/HDG1Mr3tvig4C6t4N8YNuz0+9B3GMLNYVGiCf/WCm/pJF+niWu1gmMRCN1urXNOuzyf8YagGmExDnTKaayTIyUCGX80o7sdmko3tOW+bjq2OVnAEG4MIOOvmemJy4PkbRVWscPdnYFNgfLTUxcZBXsC5PfwmEAfFGwKIoNtDJJnH9nXrjYQbnSyAu/+gJ19Oqz083ZpV2e0gttCbSDcGWDDW6HytdLtAZvqRKfonF8uu/1TNx03O1nBED4bFKp2P1wW6MzeyZWB4U7hSdAo+DJA/otwH+CFQB98uaejD1VYFewDbnaygib4wLcbD3ND1VL9tCXzdhiC9XPRgCe95vCQz6EPg+S5nPRXOmxPm00zYSUnz+Gb7xDb0NpPwPpgH3CDP6IaazBXcLA9TlZwy1eFpzg5Nh13GySC7dwLaIWvhMhv9QqDXZZwmStfccbcKwwFxzThj0HydQVXz22GueKBk3AzcuqEVwXaQPiTm5gJNzfvoOy+JchVWMOH4K6dbya8svYdvjqZvRMjfIqPY63gWycL2Mr4Am6GmkZ0qaICqwt2tlnbz9NfK01ogjeCGjtNcKeh0pOdchX/jX/jMd19WL7InaPL3ZXXM4UQAtvY1876x8FbowVOVnDPUPccBqUJftEKdVgZOKyfJqzzGvBacP4Ly6H9JaIGy7WC9/1XFvJhO0FnNcF7dl95aapkuKFM+JsQgBEjB45rVboxFTLc7jTGPZR8OFvxdev4ezumCI53qLX38V2PnZ6aTPKWMSywFWfMHpicMlW8zyigeZGi8Pe+Hl+cMzpcHD7StwmGDIbgCU70bXnl3b4o54qhQwJ/tC/Kh5wU05bobQ0v7V2xghdbjymo9sXiEYBRWGndyPB8H5SCalHa9j7gv6xr1OJxa3g4qgnWhdmhC6jff73iEUIRlz3AUIKjfqWcwKOMi+WUgp/j2mEKoJ8TeVw7QtGenLpVU72WuWF2mALqb/x7L380YT3iskc3NEuHhkF/XDtCkdbEozLeCCENCCE52ZF5Gy8R4kEIKWjSHZmkXpQFG1pCiti4ZaF/kISsS+IUO6OrcGuYHbqg+gdGiKAzhJCcQQjJGYSQnGFwSb2A7xVZ6B9klVXIsnRoy96kzkQ11BRUvxCihJBEO2FUxpu8HFn90lv08UKIByEkJzsyb+NzEyFFqYLS1i+EKCGk0I3b0DaGRX2vaELeQ0YEZlARIugMISRnEEJyhsEl9YK+VzQh7yE5KUuHtuxN6kxUQ01B9QshSghJtBNGZbzJy5HVL71FHy+EeBBCcrIj8zY+NxFSlCoobf1CiBJCCt24DW1jWNT3iibkPWREYAYVIYLOEEJyBiEkZxhcUi/oe0UT8h6Sk7J0aMvepM5ENdQUVL8QooSQRDthVMabvBxZ/dJb9PFCiAchJCc7Mm/jcxMhaVdBTsrj+2W/EOJh5AlJu3EzKUfI0DWGab9XmPQJkf8vKw5MyoSkhYFFSNowQogQ0g9IhBQ8srNXmJEdpqB2Z68wIztMQe2OrVA+TKWjF0JUQQnppYOVD+c1wf0gJFEHKx8mupEQCAQCgUAgEAgEAidj/A+8saMDhG9CPQAAAABJRU5ErkJggg==;" parent="1" vertex="1">
          <mxGeometry x="403" y="1438" width="65" height="65" as="geometry" />
        </mxCell>
        <mxCell id="b7DNo_pChQtwdVCJHLkM-81" style="edgeStyle=orthogonalEdgeStyle;rounded=0;orthogonalLoop=1;jettySize=auto;html=1;entryX=0.5;entryY=0;entryDx=0;entryDy=0;" parent="1" source="b7DNo_pChQtwdVCJHLkM-50" target="b7DNo_pChQtwdVCJHLkM-80" edge="1">
          <mxGeometry relative="1" as="geometry" />
        </mxCell>
        <mxCell id="b7DNo_pChQtwdVCJHLkM-83" style="edgeStyle=orthogonalEdgeStyle;rounded=0;orthogonalLoop=1;jettySize=auto;html=1;entryX=0.5;entryY=0;entryDx=0;entryDy=0;exitX=0.5;exitY=1;exitDx=0;exitDy=0;" parent="1" source="b7DNo_pChQtwdVCJHLkM-50" target="b7DNo_pChQtwdVCJHLkM-82" edge="1">
          <mxGeometry relative="1" as="geometry" />
        </mxCell>
        <mxCell id="b7DNo_pChQtwdVCJHLkM-50" value="" style="shape=image;verticalLabelPosition=bottom;labelBackgroundColor=default;verticalAlign=top;aspect=fixed;imageAspect=0;image=data:image/png,iVBORw0KGgoAAAANSUhEUgAAAEAAAABACAYAAACqaXHeAAAACXBIWXMAAAsTAAALEwEAmpwYAAAECUlEQVR4nO1aTYgcRRQuNAqSBKPJpt+b3aDnEDx6Ue8eDCHxkkhACKKBHLwYd+PJi8aDHgQFiQoJ5BRyjIdNIBPnvV1jCMklYMCDGPwDE8H4x86rzQtvt3pmZ9yeme5Jz3Tv9gcFQ3V90/W+ej9VNeNchQoVKlSoMFLo/NRj0oAXrdlnt57QnI+eFcIfPKNas8/W59YDhOFlIfgnGH8jNLU+e+bWMjzhm0K4uGQwwxd61T2iZ9zDwvhJ8IR7QviuW2vQutsgjJ/2MrJLnC9NHLcWoLx1syf8Khj2n5+r7U8aK4R72+EBF7T+1BZXZujlySlPcD0Y/3uzgc8NlCAZf41zhH4TPe1KnOl/y2KIzk9NdghH+LwrE4RgX4crX33i8bTfofWJTZ7wXCt0GnjAlTXTu4woVYXQATJ9VhS+QmiKTJ8Vha0QmiHTZ0XhKkRziEyfFYWpENKd6UfokiHkxlch/APM9KWqEJpjpi98hdARZPrCVggdYaYvXIVojiHTF6ZCyBgz/dgrhC9Aph9LhVDL9AQnAnnRc3Q07QSEcY9nvCSMf1vzjHWh2u5R8WPY3FuLSHDCbOtJUHUPecKzw1xSCsMH8W1vdxOC9/Lm97yEJTxrNiYO9oyvhZX/M8s1dVg5m+iCZ3xbeUfNmiecDn0qjeilvPh9EvndZRFqhxIHesIrfQf1gLltUHp6le+eCc8u5sXvOTeqHQqedDlxkBD8a4P029rWLC8Rxr+W+Lyj1v1saSWXvetuXvxe0Dpui0M7cZAPsZblBYPw834+7PxcJQAPp7AQ3El0YdulLbvg7b78r7dhFn4BPAAuhEQ1k5jEGM4PwJ/Owi+CAIdbZYzwmK1aWLl34jLmKTqSyKfoyAr+zKp8hsOFE0DrE5uE8CMhbCZtYlb8FL4ojJ/pbLSxkw+fx7u2PvymMH64kj9WAdQOHwwUHz6E4GNP+IonmLWYtpi1z57hoDCeansCXtH5qSe1AROe4FqLv7SHh4Pm6r350DDhxiqA2taZsR4m/+PCXLSrH2ehMfmMMNwK76q3xCO4qQ3YmYpPeLHn1jZvATzBG8vG4y+rZf4kWFyvuLww8W5l5hO+PhYBdDbaKAx/BAH2uAzXWO24Tn/Si/kWJoOGwgMVQNoGJO+t+00onD2y/jWmfXaBV0cvAOPJ8PK3Usy5633R0eBBJ4fiE5weuQCecEYIvk8Tu93QuWi7EHxnR99R8HPfCBUdlQBceYBWIcBVDtDsSWI95QBPMOcZuON5yfvSCcD/H1z2vkoATuUBQHbm7nxe7r5qH8B9PEAIfrYBpftv7gBoMr4QDk4/JQ4ShuP97uTK3oTh/UQB9MbOR02E2BPWUrOVN+PNxpycrEKFCq6cuA9IUFR3mXGBJAAAAABJRU5ErkJggg==;" parent="1" vertex="1">
          <mxGeometry x="203" y="1566" width="44" height="44" as="geometry" />
        </mxCell>
        <mxCell id="b7DNo_pChQtwdVCJHLkM-52" value="" style="shape=image;verticalLabelPosition=bottom;labelBackgroundColor=default;verticalAlign=top;aspect=fixed;imageAspect=0;image=data:image/png,iVBORw0KGgoAAAANSUhEUgAAAEAAAABACAYAAACqaXHeAAAACXBIWXMAAAsTAAALEwEAmpwYAAAECUlEQVR4nO1aTYgcRRQuNAqSBKPJpt+b3aDnEDx6Ue8eDCHxkkhACKKBHLwYd+PJi8aDHgQFiQoJ5BRyjIdNIBPnvV1jCMklYMCDGPwDE8H4x86rzQtvt3pmZ9yeme5Jz3Tv9gcFQ3V90/W+ej9VNeNchQoVKlSoMFLo/NRj0oAXrdlnt57QnI+eFcIfPKNas8/W59YDhOFlIfgnGH8jNLU+e+bWMjzhm0K4uGQwwxd61T2iZ9zDwvhJ8IR7QviuW2vQutsgjJ/2MrJLnC9NHLcWoLx1syf8Khj2n5+r7U8aK4R72+EBF7T+1BZXZujlySlPcD0Y/3uzgc8NlCAZf41zhH4TPe1KnOl/y2KIzk9NdghH+LwrE4RgX4crX33i8bTfofWJTZ7wXCt0GnjAlTXTu4woVYXQATJ9VhS+QmiKTJ8Vha0QmiHTZ0XhKkRziEyfFYWpENKd6UfokiHkxlch/APM9KWqEJpjpi98hdARZPrCVggdYaYvXIVojiHTF6ZCyBgz/dgrhC9Aph9LhVDL9AQnAnnRc3Q07QSEcY9nvCSMf1vzjHWh2u5R8WPY3FuLSHDCbOtJUHUPecKzw1xSCsMH8W1vdxOC9/Lm97yEJTxrNiYO9oyvhZX/M8s1dVg5m+iCZ3xbeUfNmiecDn0qjeilvPh9EvndZRFqhxIHesIrfQf1gLltUHp6le+eCc8u5sXvOTeqHQqedDlxkBD8a4P029rWLC8Rxr+W+Lyj1v1saSWXvetuXvxe0Dpui0M7cZAPsZblBYPw834+7PxcJQAPp7AQ3El0YdulLbvg7b78r7dhFn4BPAAuhEQ1k5jEGM4PwJ/Owi+CAIdbZYzwmK1aWLl34jLmKTqSyKfoyAr+zKp8hsOFE0DrE5uE8CMhbCZtYlb8FL4ojJ/pbLSxkw+fx7u2PvymMH64kj9WAdQOHwwUHz6E4GNP+IonmLWYtpi1z57hoDCeansCXtH5qSe1AROe4FqLv7SHh4Pm6r350DDhxiqA2taZsR4m/+PCXLSrH2ehMfmMMNwK76q3xCO4qQ3YmYpPeLHn1jZvATzBG8vG4y+rZf4kWFyvuLww8W5l5hO+PhYBdDbaKAx/BAH2uAzXWO24Tn/Si/kWJoOGwgMVQNoGJO+t+00onD2y/jWmfXaBV0cvAOPJ8PK3Usy5633R0eBBJ4fiE5weuQCecEYIvk8Tu93QuWi7EHxnR99R8HPfCBUdlQBceYBWIcBVDtDsSWI95QBPMOcZuON5yfvSCcD/H1z2vkoATuUBQHbm7nxe7r5qH8B9PEAIfrYBpftv7gBoMr4QDk4/JQ4ShuP97uTK3oTh/UQB9MbOR02E2BPWUrOVN+PNxpycrEKFCq6cuA9IUFR3mXGBJAAAAABJRU5ErkJggg==;" parent="1" vertex="1">
          <mxGeometry x="291" y="1566" width="44" height="44" as="geometry" />
        </mxCell>
        <mxCell id="b7DNo_pChQtwdVCJHLkM-53" value="" style="shape=image;verticalLabelPosition=bottom;labelBackgroundColor=default;verticalAlign=top;aspect=fixed;imageAspect=0;image=data:image/png,iVBORw0KGgoAAAANSUhEUgAAAEAAAABACAYAAACqaXHeAAAACXBIWXMAAAsTAAALEwEAmpwYAAAECUlEQVR4nO1aTYgcRRQuNAqSBKPJpt+b3aDnEDx6Ue8eDCHxkkhACKKBHLwYd+PJi8aDHgQFiQoJ5BRyjIdNIBPnvV1jCMklYMCDGPwDE8H4x86rzQtvt3pmZ9yeme5Jz3Tv9gcFQ3V90/W+ej9VNeNchQoVKlSoMFLo/NRj0oAXrdlnt57QnI+eFcIfPKNas8/W59YDhOFlIfgnGH8jNLU+e+bWMjzhm0K4uGQwwxd61T2iZ9zDwvhJ8IR7QviuW2vQutsgjJ/2MrJLnC9NHLcWoLx1syf8Khj2n5+r7U8aK4R72+EBF7T+1BZXZujlySlPcD0Y/3uzgc8NlCAZf41zhH4TPe1KnOl/y2KIzk9NdghH+LwrE4RgX4crX33i8bTfofWJTZ7wXCt0GnjAlTXTu4woVYXQATJ9VhS+QmiKTJ8Vha0QmiHTZ0XhKkRziEyfFYWpENKd6UfokiHkxlch/APM9KWqEJpjpi98hdARZPrCVggdYaYvXIVojiHTF6ZCyBgz/dgrhC9Aph9LhVDL9AQnAnnRc3Q07QSEcY9nvCSMf1vzjHWh2u5R8WPY3FuLSHDCbOtJUHUPecKzw1xSCsMH8W1vdxOC9/Lm97yEJTxrNiYO9oyvhZX/M8s1dVg5m+iCZ3xbeUfNmiecDn0qjeilvPh9EvndZRFqhxIHesIrfQf1gLltUHp6le+eCc8u5sXvOTeqHQqedDlxkBD8a4P029rWLC8Rxr+W+Lyj1v1saSWXvetuXvxe0Dpui0M7cZAPsZblBYPw834+7PxcJQAPp7AQ3El0YdulLbvg7b78r7dhFn4BPAAuhEQ1k5jEGM4PwJ/Owi+CAIdbZYzwmK1aWLl34jLmKTqSyKfoyAr+zKp8hsOFE0DrE5uE8CMhbCZtYlb8FL4ojJ/pbLSxkw+fx7u2PvymMH64kj9WAdQOHwwUHz6E4GNP+IonmLWYtpi1z57hoDCeansCXtH5qSe1AROe4FqLv7SHh4Pm6r350DDhxiqA2taZsR4m/+PCXLSrH2ehMfmMMNwK76q3xCO4qQ3YmYpPeLHn1jZvATzBG8vG4y+rZf4kWFyvuLww8W5l5hO+PhYBdDbaKAx/BAH2uAzXWO24Tn/Si/kWJoOGwgMVQNoGJO+t+00onD2y/jWmfXaBV0cvAOPJ8PK3Usy5633R0eBBJ4fiE5weuQCecEYIvk8Tu93QuWi7EHxnR99R8HPfCBUdlQBceYBWIcBVDtDsSWI95QBPMOcZuON5yfvSCcD/H1z2vkoATuUBQHbm7nxe7r5qH8B9PEAIfrYBpftv7gBoMr4QDk4/JQ4ShuP97uTK3oTh/UQB9MbOR02E2BPWUrOVN+PNxpycrEKFCq6cuA9IUFR3mXGBJAAAAABJRU5ErkJggg==;" parent="1" vertex="1">
          <mxGeometry x="335" y="1566" width="44" height="44" as="geometry" />
        </mxCell>
        <mxCell id="b7DNo_pChQtwdVCJHLkM-54" value="" style="shape=image;verticalLabelPosition=bottom;labelBackgroundColor=default;verticalAlign=top;aspect=fixed;imageAspect=0;image=data:image/png,iVBORw0KGgoAAAANSUhEUgAAAEAAAABACAYAAACqaXHeAAAACXBIWXMAAAsTAAALEwEAmpwYAAAECUlEQVR4nO1aTYgcRRQuNAqSBKPJpt+b3aDnEDx6Ue8eDCHxkkhACKKBHLwYd+PJi8aDHgQFiQoJ5BRyjIdNIBPnvV1jCMklYMCDGPwDE8H4x86rzQtvt3pmZ9yeme5Jz3Tv9gcFQ3V90/W+ej9VNeNchQoVKlSoMFLo/NRj0oAXrdlnt57QnI+eFcIfPKNas8/W59YDhOFlIfgnGH8jNLU+e+bWMjzhm0K4uGQwwxd61T2iZ9zDwvhJ8IR7QviuW2vQutsgjJ/2MrJLnC9NHLcWoLx1syf8Khj2n5+r7U8aK4R72+EBF7T+1BZXZujlySlPcD0Y/3uzgc8NlCAZf41zhH4TPe1KnOl/y2KIzk9NdghH+LwrE4RgX4crX33i8bTfofWJTZ7wXCt0GnjAlTXTu4woVYXQATJ9VhS+QmiKTJ8Vha0QmiHTZ0XhKkRziEyfFYWpENKd6UfokiHkxlch/APM9KWqEJpjpi98hdARZPrCVggdYaYvXIVojiHTF6ZCyBgz/dgrhC9Aph9LhVDL9AQnAnnRc3Q07QSEcY9nvCSMf1vzjHWh2u5R8WPY3FuLSHDCbOtJUHUPecKzw1xSCsMH8W1vdxOC9/Lm97yEJTxrNiYO9oyvhZX/M8s1dVg5m+iCZ3xbeUfNmiecDn0qjeilvPh9EvndZRFqhxIHesIrfQf1gLltUHp6le+eCc8u5sXvOTeqHQqedDlxkBD8a4P029rWLC8Rxr+W+Lyj1v1saSWXvetuXvxe0Dpui0M7cZAPsZblBYPw834+7PxcJQAPp7AQ3El0YdulLbvg7b78r7dhFn4BPAAuhEQ1k5jEGM4PwJ/Owi+CAIdbZYzwmK1aWLl34jLmKTqSyKfoyAr+zKp8hsOFE0DrE5uE8CMhbCZtYlb8FL4ojJ/pbLSxkw+fx7u2PvymMH64kj9WAdQOHwwUHz6E4GNP+IonmLWYtpi1z57hoDCeansCXtH5qSe1AROe4FqLv7SHh4Pm6r350DDhxiqA2taZsR4m/+PCXLSrH2ehMfmMMNwK76q3xCO4qQ3YmYpPeLHn1jZvATzBG8vG4y+rZf4kWFyvuLww8W5l5hO+PhYBdDbaKAx/BAH2uAzXWO24Tn/Si/kWJoOGwgMVQNoGJO+t+00onD2y/jWmfXaBV0cvAOPJ8PK3Usy5633R0eBBJ4fiE5weuQCecEYIvk8Tu93QuWi7EHxnR99R8HPfCBUdlQBceYBWIcBVDtDsSWI95QBPMOcZuON5yfvSCcD/H1z2vkoATuUBQHbm7nxe7r5qH8B9PEAIfrYBpftv7gBoMr4QDk4/JQ4ShuP97uTK3oTh/UQB9MbOR02E2BPWUrOVN+PNxpycrEKFCq6cuA9IUFR3mXGBJAAAAABJRU5ErkJggg==;" parent="1" vertex="1">
          <mxGeometry x="247" y="1566" width="44" height="44" as="geometry" />
        </mxCell>
        <mxCell id="b7DNo_pChQtwdVCJHLkM-63" value="" style="shape=image;verticalLabelPosition=bottom;labelBackgroundColor=default;verticalAlign=top;aspect=fixed;imageAspect=0;image=data:image/png,iVBORw0KGgoAAAANSUhEUgAAAEAAAABACAYAAACqaXHeAAAACXBIWXMAAAsTAAALEwEAmpwYAAAECUlEQVR4nO1aTYgcRRQuNAqSBKPJpt+b3aDnEDx6Ue8eDCHxkkhACKKBHLwYd+PJi8aDHgQFiQoJ5BRyjIdNIBPnvV1jCMklYMCDGPwDE8H4x86rzQtvt3pmZ9yeme5Jz3Tv9gcFQ3V90/W+ej9VNeNchQoVKlSoMFLo/NRj0oAXrdlnt57QnI+eFcIfPKNas8/W59YDhOFlIfgnGH8jNLU+e+bWMjzhm0K4uGQwwxd61T2iZ9zDwvhJ8IR7QviuW2vQutsgjJ/2MrJLnC9NHLcWoLx1syf8Khj2n5+r7U8aK4R72+EBF7T+1BZXZujlySlPcD0Y/3uzgc8NlCAZf41zhH4TPe1KnOl/y2KIzk9NdghH+LwrE4RgX4crX33i8bTfofWJTZ7wXCt0GnjAlTXTu4woVYXQATJ9VhS+QmiKTJ8Vha0QmiHTZ0XhKkRziEyfFYWpENKd6UfokiHkxlch/APM9KWqEJpjpi98hdARZPrCVggdYaYvXIVojiHTF6ZCyBgz/dgrhC9Aph9LhVDL9AQnAnnRc3Q07QSEcY9nvCSMf1vzjHWh2u5R8WPY3FuLSHDCbOtJUHUPecKzw1xSCsMH8W1vdxOC9/Lm97yEJTxrNiYO9oyvhZX/M8s1dVg5m+iCZ3xbeUfNmiecDn0qjeilvPh9EvndZRFqhxIHesIrfQf1gLltUHp6le+eCc8u5sXvOTeqHQqedDlxkBD8a4P029rWLC8Rxr+W+Lyj1v1saSWXvetuXvxe0Dpui0M7cZAPsZblBYPw834+7PxcJQAPp7AQ3El0YdulLbvg7b78r7dhFn4BPAAuhEQ1k5jEGM4PwJ/Owi+CAIdbZYzwmK1aWLl34jLmKTqSyKfoyAr+zKp8hsOFE0DrE5uE8CMhbCZtYlb8FL4ojJ/pbLSxkw+fx7u2PvymMH64kj9WAdQOHwwUHz6E4GNP+IonmLWYtpi1z57hoDCeansCXtH5qSe1AROe4FqLv7SHh4Pm6r350DDhxiqA2taZsR4m/+PCXLSrH2ehMfmMMNwK76q3xCO4qQ3YmYpPeLHn1jZvATzBG8vG4y+rZf4kWFyvuLww8W5l5hO+PhYBdDbaKAx/BAH2uAzXWO24Tn/Si/kWJoOGwgMVQNoGJO+t+00onD2y/jWmfXaBV0cvAOPJ8PK3Usy5633R0eBBJ4fiE5weuQCecEYIvk8Tu93QuWi7EHxnR99R8HPfCBUdlQBceYBWIcBVDtDsSWI95QBPMOcZuON5yfvSCcD/H1z2vkoATuUBQHbm7nxe7r5qH8B9PEAIfrYBpftv7gBoMr4QDk4/JQ4ShuP97uTK3oTh/UQB9MbOR02E2BPWUrOVN+PNxpycrEKFCq6cuA9IUFR3mXGBJAAAAABJRU5ErkJggg==;" parent="1" vertex="1">
          <mxGeometry x="413.5" y="1566" width="44" height="44" as="geometry" />
        </mxCell>
        <mxCell id="b7DNo_pChQtwdVCJHLkM-64" value="" style="shape=image;verticalLabelPosition=bottom;labelBackgroundColor=default;verticalAlign=top;aspect=fixed;imageAspect=0;image=data:image/png,iVBORw0KGgoAAAANSUhEUgAAAEAAAABACAYAAACqaXHeAAAACXBIWXMAAAsTAAALEwEAmpwYAAAECUlEQVR4nO1aTYgcRRQuNAqSBKPJpt+b3aDnEDx6Ue8eDCHxkkhACKKBHLwYd+PJi8aDHgQFiQoJ5BRyjIdNIBPnvV1jCMklYMCDGPwDE8H4x86rzQtvt3pmZ9yeme5Jz3Tv9gcFQ3V90/W+ej9VNeNchQoVKlSoMFLo/NRj0oAXrdlnt57QnI+eFcIfPKNas8/W59YDhOFlIfgnGH8jNLU+e+bWMjzhm0K4uGQwwxd61T2iZ9zDwvhJ8IR7QviuW2vQutsgjJ/2MrJLnC9NHLcWoLx1syf8Khj2n5+r7U8aK4R72+EBF7T+1BZXZujlySlPcD0Y/3uzgc8NlCAZf41zhH4TPe1KnOl/y2KIzk9NdghH+LwrE4RgX4crX33i8bTfofWJTZ7wXCt0GnjAlTXTu4woVYXQATJ9VhS+QmiKTJ8Vha0QmiHTZ0XhKkRziEyfFYWpENKd6UfokiHkxlch/APM9KWqEJpjpi98hdARZPrCVggdYaYvXIVojiHTF6ZCyBgz/dgrhC9Aph9LhVDL9AQnAnnRc3Q07QSEcY9nvCSMf1vzjHWh2u5R8WPY3FuLSHDCbOtJUHUPecKzw1xSCsMH8W1vdxOC9/Lm97yEJTxrNiYO9oyvhZX/M8s1dVg5m+iCZ3xbeUfNmiecDn0qjeilvPh9EvndZRFqhxIHesIrfQf1gLltUHp6le+eCc8u5sXvOTeqHQqedDlxkBD8a4P029rWLC8Rxr+W+Lyj1v1saSWXvetuXvxe0Dpui0M7cZAPsZblBYPw834+7PxcJQAPp7AQ3El0YdulLbvg7b78r7dhFn4BPAAuhEQ1k5jEGM4PwJ/Owi+CAIdbZYzwmK1aWLl34jLmKTqSyKfoyAr+zKp8hsOFE0DrE5uE8CMhbCZtYlb8FL4ojJ/pbLSxkw+fx7u2PvymMH64kj9WAdQOHwwUHz6E4GNP+IonmLWYtpi1z57hoDCeansCXtH5qSe1AROe4FqLv7SHh4Pm6r350DDhxiqA2taZsR4m/+PCXLSrH2ehMfmMMNwK76q3xCO4qQ3YmYpPeLHn1jZvATzBG8vG4y+rZf4kWFyvuLww8W5l5hO+PhYBdDbaKAx/BAH2uAzXWO24Tn/Si/kWJoOGwgMVQNoGJO+t+00onD2y/jWmfXaBV0cvAOPJ8PK3Usy5633R0eBBJ4fiE5weuQCecEYIvk8Tu93QuWi7EHxnR99R8HPfCBUdlQBceYBWIcBVDtDsSWI95QBPMOcZuON5yfvSCcD/H1z2vkoATuUBQHbm7nxe7r5qH8B9PEAIfrYBpftv7gBoMr4QDk4/JQ4ShuP97uTK3oTh/UQB9MbOR02E2BPWUrOVN+PNxpycrEKFCq6cuA9IUFR3mXGBJAAAAABJRU5ErkJggg==;" parent="1" vertex="1">
          <mxGeometry x="457.5" y="1566" width="44" height="44" as="geometry" />
        </mxCell>
        <mxCell id="b7DNo_pChQtwdVCJHLkM-67" value="" style="shape=image;verticalLabelPosition=bottom;labelBackgroundColor=default;verticalAlign=top;aspect=fixed;imageAspect=0;image=data:image/png,iVBORw0KGgoAAAANSUhEUgAAAEAAAABACAYAAACqaXHeAAAACXBIWXMAAAsTAAALEwEAmpwYAAAECUlEQVR4nO1aTYgcRRQuNAqSBKPJpt+b3aDnEDx6Ue8eDCHxkkhACKKBHLwYd+PJi8aDHgQFiQoJ5BRyjIdNIBPnvV1jCMklYMCDGPwDE8H4x86rzQtvt3pmZ9yeme5Jz3Tv9gcFQ3V90/W+ej9VNeNchQoVKlSoMFLo/NRj0oAXrdlnt57QnI+eFcIfPKNas8/W59YDhOFlIfgnGH8jNLU+e+bWMjzhm0K4uGQwwxd61T2iZ9zDwvhJ8IR7QviuW2vQutsgjJ/2MrJLnC9NHLcWoLx1syf8Khj2n5+r7U8aK4R72+EBF7T+1BZXZujlySlPcD0Y/3uzgc8NlCAZf41zhH4TPe1KnOl/y2KIzk9NdghH+LwrE4RgX4crX33i8bTfofWJTZ7wXCt0GnjAlTXTu4woVYXQATJ9VhS+QmiKTJ8Vha0QmiHTZ0XhKkRziEyfFYWpENKd6UfokiHkxlch/APM9KWqEJpjpi98hdARZPrCVggdYaYvXIVojiHTF6ZCyBgz/dgrhC9Aph9LhVDL9AQnAnnRc3Q07QSEcY9nvCSMf1vzjHWh2u5R8WPY3FuLSHDCbOtJUHUPecKzw1xSCsMH8W1vdxOC9/Lm97yEJTxrNiYO9oyvhZX/M8s1dVg5m+iCZ3xbeUfNmiecDn0qjeilvPh9EvndZRFqhxIHesIrfQf1gLltUHp6le+eCc8u5sXvOTeqHQqedDlxkBD8a4P029rWLC8Rxr+W+Lyj1v1saSWXvetuXvxe0Dpui0M7cZAPsZblBYPw834+7PxcJQAPp7AQ3El0YdulLbvg7b78r7dhFn4BPAAuhEQ1k5jEGM4PwJ/Owi+CAIdbZYzwmK1aWLl34jLmKTqSyKfoyAr+zKp8hsOFE0DrE5uE8CMhbCZtYlb8FL4ojJ/pbLSxkw+fx7u2PvymMH64kj9WAdQOHwwUHz6E4GNP+IonmLWYtpi1z57hoDCeansCXtH5qSe1AROe4FqLv7SHh4Pm6r350DDhxiqA2taZsR4m/+PCXLSrH2ehMfmMMNwK76q3xCO4qQ3YmYpPeLHn1jZvATzBG8vG4y+rZf4kWFyvuLww8W5l5hO+PhYBdDbaKAx/BAH2uAzXWO24Tn/Si/kWJoOGwgMVQNoGJO+t+00onD2y/jWmfXaBV0cvAOPJ8PK3Usy5633R0eBBJ4fiE5weuQCecEYIvk8Tu93QuWi7EHxnR99R8HPfCBUdlQBceYBWIcBVDtDsSWI95QBPMOcZuON5yfvSCcD/H1z2vkoATuUBQHbm7nxe7r5qH8B9PEAIfrYBpftv7gBoMr4QDk4/JQ4ShuP97uTK3oTh/UQB9MbOR02E2BPWUrOVN+PNxpycrEKFCq6cuA9IUFR3mXGBJAAAAABJRU5ErkJggg==;" parent="1" vertex="1">
          <mxGeometry x="523" y="1566" width="44" height="44" as="geometry" />
        </mxCell>
        <mxCell id="b7DNo_pChQtwdVCJHLkM-68" value="" style="shape=image;verticalLabelPosition=bottom;labelBackgroundColor=default;verticalAlign=top;aspect=fixed;imageAspect=0;image=data:image/png,iVBORw0KGgoAAAANSUhEUgAAAEAAAABACAYAAACqaXHeAAAACXBIWXMAAAsTAAALEwEAmpwYAAAECUlEQVR4nO1aTYgcRRQuNAqSBKPJpt+b3aDnEDx6Ue8eDCHxkkhACKKBHLwYd+PJi8aDHgQFiQoJ5BRyjIdNIBPnvV1jCMklYMCDGPwDE8H4x86rzQtvt3pmZ9yeme5Jz3Tv9gcFQ3V90/W+ej9VNeNchQoVKlSoMFLo/NRj0oAXrdlnt57QnI+eFcIfPKNas8/W59YDhOFlIfgnGH8jNLU+e+bWMjzhm0K4uGQwwxd61T2iZ9zDwvhJ8IR7QviuW2vQutsgjJ/2MrJLnC9NHLcWoLx1syf8Khj2n5+r7U8aK4R72+EBF7T+1BZXZujlySlPcD0Y/3uzgc8NlCAZf41zhH4TPe1KnOl/y2KIzk9NdghH+LwrE4RgX4crX33i8bTfofWJTZ7wXCt0GnjAlTXTu4woVYXQATJ9VhS+QmiKTJ8Vha0QmiHTZ0XhKkRziEyfFYWpENKd6UfokiHkxlch/APM9KWqEJpjpi98hdARZPrCVggdYaYvXIVojiHTF6ZCyBgz/dgrhC9Aph9LhVDL9AQnAnnRc3Q07QSEcY9nvCSMf1vzjHWh2u5R8WPY3FuLSHDCbOtJUHUPecKzw1xSCsMH8W1vdxOC9/Lm97yEJTxrNiYO9oyvhZX/M8s1dVg5m+iCZ3xbeUfNmiecDn0qjeilvPh9EvndZRFqhxIHesIrfQf1gLltUHp6le+eCc8u5sXvOTeqHQqedDlxkBD8a4P029rWLC8Rxr+W+Lyj1v1saSWXvetuXvxe0Dpui0M7cZAPsZblBYPw834+7PxcJQAPp7AQ3El0YdulLbvg7b78r7dhFn4BPAAuhEQ1k5jEGM4PwJ/Owi+CAIdbZYzwmK1aWLl34jLmKTqSyKfoyAr+zKp8hsOFE0DrE5uE8CMhbCZtYlb8FL4ojJ/pbLSxkw+fx7u2PvymMH64kj9WAdQOHwwUHz6E4GNP+IonmLWYtpi1z57hoDCeansCXtH5qSe1AROe4FqLv7SHh4Pm6r350DDhxiqA2taZsR4m/+PCXLSrH2ehMfmMMNwK76q3xCO4qQ3YmYpPeLHn1jZvATzBG8vG4y+rZf4kWFyvuLww8W5l5hO+PhYBdDbaKAx/BAH2uAzXWO24Tn/Si/kWJoOGwgMVQNoGJO+t+00onD2y/jWmfXaBV0cvAOPJ8PK3Usy5633R0eBBJ4fiE5weuQCecEYIvk8Tu93QuWi7EHxnR99R8HPfCBUdlQBceYBWIcBVDtDsSWI95QBPMOcZuON5yfvSCcD/H1z2vkoATuUBQHbm7nxe7r5qH8B9PEAIfrYBpftv7gBoMr4QDk4/JQ4ShuP97uTK3oTh/UQB9MbOR02E2BPWUrOVN+PNxpycrEKFCq6cuA9IUFR3mXGBJAAAAABJRU5ErkJggg==;" parent="1" vertex="1">
          <mxGeometry x="706" y="1566" width="44" height="44" as="geometry" />
        </mxCell>
        <mxCell id="b7DNo_pChQtwdVCJHLkM-69" value="" style="shape=image;verticalLabelPosition=bottom;labelBackgroundColor=default;verticalAlign=top;aspect=fixed;imageAspect=0;image=data:image/png,iVBORw0KGgoAAAANSUhEUgAAAEAAAABACAYAAACqaXHeAAAACXBIWXMAAAsTAAALEwEAmpwYAAAECUlEQVR4nO1aTYgcRRQuNAqSBKPJpt+b3aDnEDx6Ue8eDCHxkkhACKKBHLwYd+PJi8aDHgQFiQoJ5BRyjIdNIBPnvV1jCMklYMCDGPwDE8H4x86rzQtvt3pmZ9yeme5Jz3Tv9gcFQ3V90/W+ej9VNeNchQoVKlSoMFLo/NRj0oAXrdlnt57QnI+eFcIfPKNas8/W59YDhOFlIfgnGH8jNLU+e+bWMjzhm0K4uGQwwxd61T2iZ9zDwvhJ8IR7QviuW2vQutsgjJ/2MrJLnC9NHLcWoLx1syf8Khj2n5+r7U8aK4R72+EBF7T+1BZXZujlySlPcD0Y/3uzgc8NlCAZf41zhH4TPe1KnOl/y2KIzk9NdghH+LwrE4RgX4crX33i8bTfofWJTZ7wXCt0GnjAlTXTu4woVYXQATJ9VhS+QmiKTJ8Vha0QmiHTZ0XhKkRziEyfFYWpENKd6UfokiHkxlch/APM9KWqEJpjpi98hdARZPrCVggdYaYvXIVojiHTF6ZCyBgz/dgrhC9Aph9LhVDL9AQnAnnRc3Q07QSEcY9nvCSMf1vzjHWh2u5R8WPY3FuLSHDCbOtJUHUPecKzw1xSCsMH8W1vdxOC9/Lm97yEJTxrNiYO9oyvhZX/M8s1dVg5m+iCZ3xbeUfNmiecDn0qjeilvPh9EvndZRFqhxIHesIrfQf1gLltUHp6le+eCc8u5sXvOTeqHQqedDlxkBD8a4P029rWLC8Rxr+W+Lyj1v1saSWXvetuXvxe0Dpui0M7cZAPsZblBYPw834+7PxcJQAPp7AQ3El0YdulLbvg7b78r7dhFn4BPAAuhEQ1k5jEGM4PwJ/Owi+CAIdbZYzwmK1aWLl34jLmKTqSyKfoyAr+zKp8hsOFE0DrE5uE8CMhbCZtYlb8FL4ojJ/pbLSxkw+fx7u2PvymMH64kj9WAdQOHwwUHz6E4GNP+IonmLWYtpi1z57hoDCeansCXtH5qSe1AROe4FqLv7SHh4Pm6r350DDhxiqA2taZsR4m/+PCXLSrH2ehMfmMMNwK76q3xCO4qQ3YmYpPeLHn1jZvATzBG8vG4y+rZf4kWFyvuLww8W5l5hO+PhYBdDbaKAx/BAH2uAzXWO24Tn/Si/kWJoOGwgMVQNoGJO+t+00onD2y/jWmfXaBV0cvAOPJ8PK3Usy5633R0eBBJ4fiE5weuQCecEYIvk8Tu93QuWi7EHxnR99R8HPfCBUdlQBceYBWIcBVDtDsSWI95QBPMOcZuON5yfvSCcD/H1z2vkoATuUBQHbm7nxe7r5qH8B9PEAIfrYBpftv7gBoMr4QDk4/JQ4ShuP97uTK3oTh/UQB9MbOR02E2BPWUrOVN+PNxpycrEKFCq6cuA9IUFR3mXGBJAAAAABJRU5ErkJggg==;" parent="1" vertex="1">
          <mxGeometry x="567" y="1566" width="44" height="44" as="geometry" />
        </mxCell>
        <mxCell id="b7DNo_pChQtwdVCJHLkM-70" value="" style="shape=image;verticalLabelPosition=bottom;labelBackgroundColor=default;verticalAlign=top;aspect=fixed;imageAspect=0;image=data:image/png,iVBORw0KGgoAAAANSUhEUgAAAEAAAABACAYAAACqaXHeAAAACXBIWXMAAAsTAAALEwEAmpwYAAAECUlEQVR4nO1aTYgcRRQuNAqSBKPJpt+b3aDnEDx6Ue8eDCHxkkhACKKBHLwYd+PJi8aDHgQFiQoJ5BRyjIdNIBPnvV1jCMklYMCDGPwDE8H4x86rzQtvt3pmZ9yeme5Jz3Tv9gcFQ3V90/W+ej9VNeNchQoVKlSoMFLo/NRj0oAXrdlnt57QnI+eFcIfPKNas8/W59YDhOFlIfgnGH8jNLU+e+bWMjzhm0K4uGQwwxd61T2iZ9zDwvhJ8IR7QviuW2vQutsgjJ/2MrJLnC9NHLcWoLx1syf8Khj2n5+r7U8aK4R72+EBF7T+1BZXZujlySlPcD0Y/3uzgc8NlCAZf41zhH4TPe1KnOl/y2KIzk9NdghH+LwrE4RgX4crX33i8bTfofWJTZ7wXCt0GnjAlTXTu4woVYXQATJ9VhS+QmiKTJ8Vha0QmiHTZ0XhKkRziEyfFYWpENKd6UfokiHkxlch/APM9KWqEJpjpi98hdARZPrCVggdYaYvXIVojiHTF6ZCyBgz/dgrhC9Aph9LhVDL9AQnAnnRc3Q07QSEcY9nvCSMf1vzjHWh2u5R8WPY3FuLSHDCbOtJUHUPecKzw1xSCsMH8W1vdxOC9/Lm97yEJTxrNiYO9oyvhZX/M8s1dVg5m+iCZ3xbeUfNmiecDn0qjeilvPh9EvndZRFqhxIHesIrfQf1gLltUHp6le+eCc8u5sXvOTeqHQqedDlxkBD8a4P029rWLC8Rxr+W+Lyj1v1saSWXvetuXvxe0Dpui0M7cZAPsZblBYPw834+7PxcJQAPp7AQ3El0YdulLbvg7b78r7dhFn4BPAAuhEQ1k5jEGM4PwJ/Owi+CAIdbZYzwmK1aWLl34jLmKTqSyKfoyAr+zKp8hsOFE0DrE5uE8CMhbCZtYlb8FL4ojJ/pbLSxkw+fx7u2PvymMH64kj9WAdQOHwwUHz6E4GNP+IonmLWYtpi1z57hoDCeansCXtH5qSe1AROe4FqLv7SHh4Pm6r350DDhxiqA2taZsR4m/+PCXLSrH2ehMfmMMNwK76q3xCO4qQ3YmYpPeLHn1jZvATzBG8vG4y+rZf4kWFyvuLww8W5l5hO+PhYBdDbaKAx/BAH2uAzXWO24Tn/Si/kWJoOGwgMVQNoGJO+t+00onD2y/jWmfXaBV0cvAOPJ8PK3Usy5633R0eBBJ4fiE5weuQCecEYIvk8Tu93QuWi7EHxnR99R8HPfCBUdlQBceYBWIcBVDtDsSWI95QBPMOcZuON5yfvSCcD/H1z2vkoATuUBQHbm7nxe7r5qH8B9PEAIfrYBpftv7gBoMr4QDk4/JQ4ShuP97uTK3oTh/UQB9MbOR02E2BPWUrOVN+PNxpycrEKFCq6cuA9IUFR3mXGBJAAAAABJRU5ErkJggg==;" parent="1" vertex="1">
          <mxGeometry x="615" y="1566" width="44" height="44" as="geometry" />
        </mxCell>
        <mxCell id="b7DNo_pChQtwdVCJHLkM-71" value="" style="shape=image;verticalLabelPosition=bottom;labelBackgroundColor=default;verticalAlign=top;aspect=fixed;imageAspect=0;image=data:image/png,iVBORw0KGgoAAAANSUhEUgAAAEAAAABACAYAAACqaXHeAAAACXBIWXMAAAsTAAALEwEAmpwYAAAECUlEQVR4nO1aTYgcRRQuNAqSBKPJpt+b3aDnEDx6Ue8eDCHxkkhACKKBHLwYd+PJi8aDHgQFiQoJ5BRyjIdNIBPnvV1jCMklYMCDGPwDE8H4x86rzQtvt3pmZ9yeme5Jz3Tv9gcFQ3V90/W+ej9VNeNchQoVKlSoMFLo/NRj0oAXrdlnt57QnI+eFcIfPKNas8/W59YDhOFlIfgnGH8jNLU+e+bWMjzhm0K4uGQwwxd61T2iZ9zDwvhJ8IR7QviuW2vQutsgjJ/2MrJLnC9NHLcWoLx1syf8Khj2n5+r7U8aK4R72+EBF7T+1BZXZujlySlPcD0Y/3uzgc8NlCAZf41zhH4TPe1KnOl/y2KIzk9NdghH+LwrE4RgX4crX33i8bTfofWJTZ7wXCt0GnjAlTXTu4woVYXQATJ9VhS+QmiKTJ8Vha0QmiHTZ0XhKkRziEyfFYWpENKd6UfokiHkxlch/APM9KWqEJpjpi98hdARZPrCVggdYaYvXIVojiHTF6ZCyBgz/dgrhC9Aph9LhVDL9AQnAnnRc3Q07QSEcY9nvCSMf1vzjHWh2u5R8WPY3FuLSHDCbOtJUHUPecKzw1xSCsMH8W1vdxOC9/Lm97yEJTxrNiYO9oyvhZX/M8s1dVg5m+iCZ3xbeUfNmiecDn0qjeilvPh9EvndZRFqhxIHesIrfQf1gLltUHp6le+eCc8u5sXvOTeqHQqedDlxkBD8a4P029rWLC8Rxr+W+Lyj1v1saSWXvetuXvxe0Dpui0M7cZAPsZblBYPw834+7PxcJQAPp7AQ3El0YdulLbvg7b78r7dhFn4BPAAuhEQ1k5jEGM4PwJ/Owi+CAIdbZYzwmK1aWLl34jLmKTqSyKfoyAr+zKp8hsOFE0DrE5uE8CMhbCZtYlb8FL4ojJ/pbLSxkw+fx7u2PvymMH64kj9WAdQOHwwUHz6E4GNP+IonmLWYtpi1z57hoDCeansCXtH5qSe1AROe4FqLv7SHh4Pm6r350DDhxiqA2taZsR4m/+PCXLSrH2ehMfmMMNwK76q3xCO4qQ3YmYpPeLHn1jZvATzBG8vG4y+rZf4kWFyvuLww8W5l5hO+PhYBdDbaKAx/BAH2uAzXWO24Tn/Si/kWJoOGwgMVQNoGJO+t+00onD2y/jWmfXaBV0cvAOPJ8PK3Usy5633R0eBBJ4fiE5weuQCecEYIvk8Tu93QuWi7EHxnR99R8HPfCBUdlQBceYBWIcBVDtDsSWI95QBPMOcZuON5yfvSCcD/H1z2vkoATuUBQHbm7nxe7r5qH8B9PEAIfrYBpftv7gBoMr4QDk4/JQ4ShuP97uTK3oTh/UQB9MbOR02E2BPWUrOVN+PNxpycrEKFCq6cuA9IUFR3mXGBJAAAAABJRU5ErkJggg==;" parent="1" vertex="1">
          <mxGeometry x="659" y="1566" width="44" height="44" as="geometry" />
        </mxCell>
        <mxCell id="b7DNo_pChQtwdVCJHLkM-85" style="edgeStyle=orthogonalEdgeStyle;rounded=0;orthogonalLoop=1;jettySize=auto;html=1;entryX=0.5;entryY=0;entryDx=0;entryDy=0;" parent="1" source="b7DNo_pChQtwdVCJHLkM-80" target="b7DNo_pChQtwdVCJHLkM-84" edge="1">
          <mxGeometry relative="1" as="geometry" />
        </mxCell>
        <mxCell id="b7DNo_pChQtwdVCJHLkM-87" style="edgeStyle=orthogonalEdgeStyle;rounded=0;orthogonalLoop=1;jettySize=auto;html=1;exitX=0.5;exitY=1;exitDx=0;exitDy=0;entryX=0.5;entryY=0;entryDx=0;entryDy=0;" parent="1" source="b7DNo_pChQtwdVCJHLkM-80" target="b7DNo_pChQtwdVCJHLkM-86" edge="1">
          <mxGeometry relative="1" as="geometry" />
        </mxCell>
        <mxCell id="b7DNo_pChQtwdVCJHLkM-89" style="edgeStyle=orthogonalEdgeStyle;rounded=0;orthogonalLoop=1;jettySize=auto;html=1;entryX=0.5;entryY=0;entryDx=0;entryDy=0;exitX=0.5;exitY=1;exitDx=0;exitDy=0;" parent="1" source="b7DNo_pChQtwdVCJHLkM-80" target="b7DNo_pChQtwdVCJHLkM-88" edge="1">
          <mxGeometry relative="1" as="geometry" />
        </mxCell>
        <mxCell id="b7DNo_pChQtwdVCJHLkM-80" value="" style="shape=image;verticalLabelPosition=bottom;labelBackgroundColor=default;verticalAlign=top;aspect=fixed;imageAspect=0;image=data:image/png,iVBORw0KGgoAAAANSUhEUgAAAEAAAABACAYAAACqaXHeAAAACXBIWXMAAAsTAAALEwEAmpwYAAAIIElEQVR4nO1baYgcRRRuFTQaDZqYnfdmo0GNV7xQjAdef7wgMd6KcRE8oiAe2fUW8fihKB4gqHhHUTQGETUmGg/WnVezOYxGREGjxltRk3jHzFRpy+vpnnnd09NdvTszO6s+KHa2uvrVq6+qXr336rXjWJJbxN0M4fmG8Cr+y//bvlvHawVuoVV+plHQZxT08m+uczqRXJXf1RC+YRS69QVecwv5Xax5uc5GhuAyreCnKK9KHfRyG6dTqDyYOyBO2Kjg5SJMS+PFA9METybx8vgRPtERILhLx4/TBN/UBorGKFygCe8yhC/5//tCw1du/8Qtk/jxzIeBw0+1wgf8sjoEBOGc9o20ARmF14pZXlcu5A6Uz8vUdVBodRBenbzna201waNu/+Qx1ef9k8dowrmyP3dw0ubOSJJR8LaYldmxbQguEAC81YiXpvxxcubl4EMgiJWgi7npzkiSVvhbIIw7sC3GteF6sXd/bcTLEFwuALi/YZ8EDwoF2+d0PACDk7oFAL/Y7H/e8w37JHhIANDrjCQZhSvE8j7fYgss/1dtAUN4Teioo66D5POyyh8cUYJX2StBnFunBBU+JpTk2hFXgq6asJUm+Dp0DBIu9I/BhaFjUMGXqceggt7IMbia93yl4GehY7CIlzidQOUiTLMwhNaVFexvZwjhE6mGkMLHO8IQCohNXaPg1ViBCRa7g5OmOJlMYZzDoNVbgLCWZ76jBl8PBM72nCGF57lvdu/sDJF4f+tCbkZlW0Av/x7xPf8/JRAvy1Ixv69R0OO7sFx6SoNde2XmNd/ZxONF+XOMwiuHw6vl5PZP3loT3MxaPkEJfmkIrmPnKZFXASZqBbdowu+Hy6stZAhneYopRWsL4X9kgyeeV+60ZvFqC2medcK/I8fTD5pgnia8k4tROF8TrAlrcvw76hV6Co+gFNH432iCpzXBbR4/hc/woNN4tYUM4ZzIbHykFZzMezfalusqKyViyBBcUG3jOhtrhR/4vFZphcdz3VB4tZzKhdyB0sIzBM+nWXiBrpC2glbwJ4fSqs+Xjh9XLsAR7vtTN03lRdtvk8SrpWQICsK2H7ARWNr77BAJ8F4ZqhzN5GVN5QIeIlDf4BZhclYebgGmasJysIezBEyjVKLcHs3iZUVa4e02PnsasXIUPv0Nw5HJED7bLF6Z/H+t8Oih88mfLrbRS8OTKcRrodNK0gq/S4sAZfAZqsGP4cjEjpY0kpxWkhbaP+7IsyWXcHsh9BfDkYmVsCb8ywdTD0euVDLi7B0On2YCwCRNZ1dtl3f+awAYEZ5PuoFih41tjcBZ8+yOLLEF07EA4IIqvwKeENunmrgT30vUB2xwOT8b1QBohfcL2S5u4GUmeatfuP247agFwKjcFcKJejD63AvSCrNZK3jYLxuEY3XnqAVAF+BYYQy9W/ec8HMB0EnV+iKcIo7j1aMWAHdxbqx0p9ncls9Dz4TjxmF9adqPWgCYjILnxHK+zxEk3Wd224N6Q3Dqv2IFMGnKHykGo0vF3J4NdMAGreARvn4P6QCFdzijGQAmo7BfHG/v8RLnetbw3E/iKbAsP8EZTQC4ng8AffLShZOyWMvXQIBXWD8IO6AWP6gBtcylrh2tOjUdBIAm/MR/f1VIxmL+7MggVwQD9CzBIhweXLbw76Zbgm7MzLQCgCRZOGweWuIE6zXhjVbGzlA7TZuZdgLgPS/AhUG0SCrAymkBfWWFh9nEMkMkw9KNZthylWyuCX/29+nrTqsmQ8EtjRSfuM4f4FunuCh0TKfwojhrP/GWVQQIWz1Rou59vKTHJV25bEO374dDZGKwvyeBYQjecZfA7um5ABS5wIgqoSYpyqYDwJPFkSjCS710O4KVbC+EdQX+wooxsWNN+eP4BqiRAI3qbZRjqwGI8xKNguvl6uBkj9Q7Bnfp+HFZAbBRju0GICC2GjmTVWyHwVSdYDICkCSwdyOs8He+b0wbuA2/rAAwlQrde4dN4/zMNgKAXr6hJ0Al1T691M74UjMAqMgBtwo5F7UNAENQTNTQiQVUswAI2ScEf7iLpmzWFgD8TLO6pKi04mWfJQRBZdqd7U0W33QH7yRmtpkmAsDk9k8ETrCqGki+0LwsKwUfELPJbWbzO4mDKeamp2Wf1r1DMK+mDPHctgFQbUewMmhXGsD9gnr+LbT0SseCPItTrKxo9mnqJwAEd48EAK/H3T/ybwGAtfnMhk9c9mlEoZ4ZHHty1RiFb7YdgMgSnCUGMkvMzLyM3yC9kKpTCM7y2g/ktxP9rGk/AArvjYvx828xi/faAuC/e6UFANcJGT71Afi4/QAQ3iT27E1p9VYA8Kd8Yln7qbi3cghdrLaLgvZe9IjN9qRIkWmVDijiJWKm70lbGZlzCBTOr/GEp2r10JOFp9M6JRi/1zlNrsqjgGdkkVUX8Rgx0FeFTIuqfRVyM7LwdFqoA2K1vfwwUxMelTWzLe6rFXZ6gvoy4aFZeDr8AVTwcuDicna4HGhcfdJ3Q0nnfSP7IHtGSs0bDXITPZ7iHsGKjMKXI9GhuwKXN7E+JY+HM8/EFviqKqxwV7Nmp7nFXJfQKz8IntWPPt2l3ZMyAVD2vgcKR1TSCgcpox9X1gm7ODdWALBeCLu+Kqwf67cGYNGUzeK8RxkIyRwgZeJ7tqgToxV+y15Y5a+sh3Wa8ETHguKCJ3wmp57NiTzr39cEH1rfCzoNqJICi2dWTUo/jb0SNYIe39ycxe2seVbCZ73yHPbP5l7rbA4bngO5Hby6lC9b/gFFQHaddObAmAAAAABJRU5ErkJggg==;" parent="1" vertex="1">
          <mxGeometry x="205" y="1678" width="40" height="40" as="geometry" />
        </mxCell>
        <mxCell id="b7DNo_pChQtwdVCJHLkM-82" value="" style="shape=image;verticalLabelPosition=bottom;labelBackgroundColor=default;verticalAlign=top;aspect=fixed;imageAspect=0;image=data:image/png,iVBORw0KGgoAAAANSUhEUgAAAEAAAABACAYAAACqaXHeAAAACXBIWXMAAAsTAAALEwEAmpwYAAAIIElEQVR4nO1baYgcRRRuFTQaDZqYnfdmo0GNV7xQjAdef7wgMd6KcRE8oiAe2fUW8fihKB4gqHhHUTQGETUmGg/WnVezOYxGREGjxltRk3jHzFRpy+vpnnnd09NdvTszO6s+KHa2uvrVq6+qXr336rXjWJJbxN0M4fmG8Cr+y//bvlvHawVuoVV+plHQZxT08m+uczqRXJXf1RC+YRS69QVecwv5Xax5uc5GhuAyreCnKK9KHfRyG6dTqDyYOyBO2Kjg5SJMS+PFA9METybx8vgRPtERILhLx4/TBN/UBorGKFygCe8yhC/5//tCw1du/8Qtk/jxzIeBw0+1wgf8sjoEBOGc9o20ARmF14pZXlcu5A6Uz8vUdVBodRBenbzna201waNu/+Qx1ef9k8dowrmyP3dw0ubOSJJR8LaYldmxbQguEAC81YiXpvxxcubl4EMgiJWgi7npzkiSVvhbIIw7sC3GteF6sXd/bcTLEFwuALi/YZ8EDwoF2+d0PACDk7oFAL/Y7H/e8w37JHhIANDrjCQZhSvE8j7fYgss/1dtAUN4Teioo66D5POyyh8cUYJX2StBnFunBBU+JpTk2hFXgq6asJUm+Dp0DBIu9I/BhaFjUMGXqceggt7IMbia93yl4GehY7CIlzidQOUiTLMwhNaVFexvZwjhE6mGkMLHO8IQCohNXaPg1ViBCRa7g5OmOJlMYZzDoNVbgLCWZ76jBl8PBM72nCGF57lvdu/sDJF4f+tCbkZlW0Av/x7xPf8/JRAvy1Ixv69R0OO7sFx6SoNde2XmNd/ZxONF+XOMwiuHw6vl5PZP3loT3MxaPkEJfmkIrmPnKZFXASZqBbdowu+Hy6stZAhneYopRWsL4X9kgyeeV+60ZvFqC2medcK/I8fTD5pgnia8k4tROF8TrAlrcvw76hV6Co+gFNH432iCpzXBbR4/hc/woNN4tYUM4ZzIbHykFZzMezfalusqKyViyBBcUG3jOhtrhR/4vFZphcdz3VB4tZzKhdyB0sIzBM+nWXiBrpC2glbwJ4fSqs+Xjh9XLsAR7vtTN03lRdtvk8SrpWQICsK2H7ARWNr77BAJ8F4ZqhzN5GVN5QIeIlDf4BZhclYebgGmasJysIezBEyjVKLcHs3iZUVa4e02PnsasXIUPv0Nw5HJED7bLF6Z/H+t8Oih88mfLrbRS8OTKcRrodNK0gq/S4sAZfAZqsGP4cjEjpY0kpxWkhbaP+7IsyWXcHsh9BfDkYmVsCb8ywdTD0euVDLi7B0On2YCwCRNZ1dtl3f+awAYEZ5PuoFih41tjcBZ8+yOLLEF07EA4IIqvwKeENunmrgT30vUB2xwOT8b1QBohfcL2S5u4GUmeatfuP247agFwKjcFcKJejD63AvSCrNZK3jYLxuEY3XnqAVAF+BYYQy9W/ec8HMB0EnV+iKcIo7j1aMWAHdxbqx0p9ncls9Dz4TjxmF9adqPWgCYjILnxHK+zxEk3Wd224N6Q3Dqv2IFMGnKHykGo0vF3J4NdMAGreARvn4P6QCFdzijGQAmo7BfHG/v8RLnetbw3E/iKbAsP8EZTQC4ng8AffLShZOyWMvXQIBXWD8IO6AWP6gBtcylrh2tOjUdBIAm/MR/f1VIxmL+7MggVwQD9CzBIhweXLbw76Zbgm7MzLQCgCRZOGweWuIE6zXhjVbGzlA7TZuZdgLgPS/AhUG0SCrAymkBfWWFh9nEMkMkw9KNZthylWyuCX/29+nrTqsmQ8EtjRSfuM4f4FunuCh0TKfwojhrP/GWVQQIWz1Rou59vKTHJV25bEO374dDZGKwvyeBYQjecZfA7um5ABS5wIgqoSYpyqYDwJPFkSjCS710O4KVbC+EdQX+wooxsWNN+eP4BqiRAI3qbZRjqwGI8xKNguvl6uBkj9Q7Bnfp+HFZAbBRju0GICC2GjmTVWyHwVSdYDICkCSwdyOs8He+b0wbuA2/rAAwlQrde4dN4/zMNgKAXr6hJ0Al1T691M74UjMAqMgBtwo5F7UNAENQTNTQiQVUswAI2ScEf7iLpmzWFgD8TLO6pKi04mWfJQRBZdqd7U0W33QH7yRmtpkmAsDk9k8ETrCqGki+0LwsKwUfELPJbWbzO4mDKeamp2Wf1r1DMK+mDPHctgFQbUewMmhXGsD9gnr+LbT0SseCPItTrKxo9mnqJwAEd48EAK/H3T/ybwGAtfnMhk9c9mlEoZ4ZHHty1RiFb7YdgMgSnCUGMkvMzLyM3yC9kKpTCM7y2g/ktxP9rGk/AArvjYvx828xi/faAuC/e6UFANcJGT71Afi4/QAQ3iT27E1p9VYA8Kd8Yln7qbi3cghdrLaLgvZe9IjN9qRIkWmVDijiJWKm70lbGZlzCBTOr/GEp2r10JOFp9M6JRi/1zlNrsqjgGdkkVUX8Rgx0FeFTIuqfRVyM7LwdFqoA2K1vfwwUxMelTWzLe6rFXZ6gvoy4aFZeDr8AVTwcuDicna4HGhcfdJ3Q0nnfSP7IHtGSs0bDXITPZ7iHsGKjMKXI9GhuwKXN7E+JY+HM8/EFviqKqxwV7Nmp7nFXJfQKz8IntWPPt2l3ZMyAVD2vgcKR1TSCgcpox9X1gm7ODdWALBeCLu+Kqwf67cGYNGUzeK8RxkIyRwgZeJ7tqgToxV+y15Y5a+sh3Wa8ETHguKCJ3wmp57NiTzr39cEH1rfCzoNqJICi2dWTUo/jb0SNYIe39ycxe2seVbCZ73yHPbP5l7rbA4bngO5Hby6lC9b/gFFQHaddObAmAAAAABJRU5ErkJggg==;" parent="1" vertex="1">
          <mxGeometry x="249" y="1678" width="40" height="40" as="geometry" />
        </mxCell>
        <mxCell id="b7DNo_pChQtwdVCJHLkM-84" value="" style="shape=image;verticalLabelPosition=bottom;labelBackgroundColor=default;verticalAlign=top;aspect=fixed;imageAspect=0;image=data:image/png,iVBORw0KGgoAAAANSUhEUgAAADIAAAAyCAYAAAAeP4ixAAAACXBIWXMAAAsTAAALEwEAmpwYAAADMUlEQVR4nO2XPWgUURDHH0QFMaCRXHbmDBEjWiRWighqEUyhnbHQVrBJK4JFBLVQ/EARES20t4mNEBUs9MzOu0AgBKKpoomixipKIB+Qm0eezLvdcPHyeZfc3cb9wyt239f8dubNm1UqVqxYsWLFirUBZQebtjDBXdb4y2i0ldyYYJQ13Bab80BYw51yG2hWC6ThVj4Iwah0ZtLJo6rClfHxWOiZvM6QUkVEZjF7Y5Ayyfy3HrGdqorT3glD2MEanhuCftY4zARjrHEimz1wIngezvbLOOyQeTalNkkrao1OVVUUSIbwEGsYKi7n4xdpRabZIbGlYBAm/BakuZ9M+MBQ8kLG945Yqmu0Kay1qUS181oqUe2eqa5R+mWcjJd5OZdYUWsw4deCQcJ3EhqqAMm8tVxDLWPvoh1rkQDWaw1TDIjtU5tn0t4B9rHNaO8ya3xiCF8YwveG8CNrHGENf7INJ/NjHSdz+keMhgE3V2Mna3zs1vSxbYa8ZtlrzUGMhuuG8B0TTJWsjiKYkj3d3oWCSLozBO0LZKBZl8UIX7PGp4bgqiE4z36yVbKK/bBrX/YQJ8BSQ014kN2ab71t7l13LboxfnK/y4p+slXWMBquMcEzo/ENE3yWvfIACdrDVLwsSIbwuNE4mJP6vrOGh5zGk7avZrsqkWxq9w724RQTPGKCHzlAg4GNS4OwRs7Su5g/vdBlVGpZuZQJzxjCT/NsXBLEhQ/eKDRdrqesVAiEN3PDbv4AHxJznYQXVYXLaLgUfnTbU79zrkPOQHCYXqqIyGjsCsLsvnthe+q3MuG4o/OhSUVEM+Q1B14ZFwbF5LUEIdWrIiZD2JuF8VqUuwtyXRQhsRSh2UN/RaheBefjrIqYDHnnApAuyQAD8jDTjQdVxJRJw+HACf0qrPdtt7dHRUxWJ/aG1YeATDuQEpYfayVLDTVBgTmdU+FGu6kNB6IiKhODRM0j7P7LgZjgd7njn50NQGLTqkBkwoK/mmUHwtl/YZYEEXo3UeM9ydWqzLLUUCO1oLOVwF+5R4JwqgSIUPIDFYTZ2Co8Upkp2Sxl64YDMQvdlhUms5KbPeogfwF5+r4fg5fxHwAAAABJRU5ErkJggg==;" parent="1" vertex="1">
          <mxGeometry x="205" y="1796" width="30" height="30" as="geometry" />
        </mxCell>
        <mxCell id="b7DNo_pChQtwdVCJHLkM-86" value="" style="shape=image;verticalLabelPosition=bottom;labelBackgroundColor=default;verticalAlign=top;aspect=fixed;imageAspect=0;image=data:image/png,iVBORw0KGgoAAAANSUhEUgAAADIAAAAyCAYAAAAeP4ixAAAACXBIWXMAAAsTAAALEwEAmpwYAAADMUlEQVR4nO2XPWgUURDHH0QFMaCRXHbmDBEjWiRWighqEUyhnbHQVrBJK4JFBLVQ/EARES20t4mNEBUs9MzOu0AgBKKpoomixipKIB+Qm0eezLvdcPHyeZfc3cb9wyt239f8dubNm1UqVqxYsWLFirUBZQebtjDBXdb4y2i0ldyYYJQ13Bab80BYw51yG2hWC6ThVj4Iwah0ZtLJo6rClfHxWOiZvM6QUkVEZjF7Y5Ayyfy3HrGdqorT3glD2MEanhuCftY4zARjrHEimz1wIngezvbLOOyQeTalNkkrao1OVVUUSIbwEGsYKi7n4xdpRabZIbGlYBAm/BakuZ9M+MBQ8kLG945Yqmu0Kay1qUS181oqUe2eqa5R+mWcjJd5OZdYUWsw4deCQcJ3EhqqAMm8tVxDLWPvoh1rkQDWaw1TDIjtU5tn0t4B9rHNaO8ya3xiCF8YwveG8CNrHGENf7INJ/NjHSdz+keMhgE3V2Mna3zs1vSxbYa8ZtlrzUGMhuuG8B0TTJWsjiKYkj3d3oWCSLozBO0LZKBZl8UIX7PGp4bgqiE4z36yVbKK/bBrX/YQJ8BSQ014kN2ab71t7l13LboxfnK/y4p+slXWMBquMcEzo/ENE3yWvfIACdrDVLwsSIbwuNE4mJP6vrOGh5zGk7avZrsqkWxq9w724RQTPGKCHzlAg4GNS4OwRs7Su5g/vdBlVGpZuZQJzxjCT/NsXBLEhQ/eKDRdrqesVAiEN3PDbv4AHxJznYQXVYXLaLgUfnTbU79zrkPOQHCYXqqIyGjsCsLsvnthe+q3MuG4o/OhSUVEM+Q1B14ZFwbF5LUEIdWrIiZD2JuF8VqUuwtyXRQhsRSh2UN/RaheBefjrIqYDHnnApAuyQAD8jDTjQdVxJRJw+HACf0qrPdtt7dHRUxWJ/aG1YeATDuQEpYfayVLDTVBgTmdU+FGu6kNB6IiKhODRM0j7P7LgZjgd7njn50NQGLTqkBkwoK/mmUHwtl/YZYEEXo3UeM9ydWqzLLUUCO1oLOVwF+5R4JwqgSIUPIDFYTZ2Co8Upkp2Sxl64YDMQvdlhUms5KbPeogfwF5+r4fg5fxHwAAAABJRU5ErkJggg==;" parent="1" vertex="1">
          <mxGeometry x="247" y="1796" width="30" height="30" as="geometry" />
        </mxCell>
        <mxCell id="b7DNo_pChQtwdVCJHLkM-88" value="" style="shape=image;verticalLabelPosition=bottom;labelBackgroundColor=default;verticalAlign=top;aspect=fixed;imageAspect=0;image=data:image/png,iVBORw0KGgoAAAANSUhEUgAAADIAAAAyCAYAAAAeP4ixAAAACXBIWXMAAAsTAAALEwEAmpwYAAABcUlEQVR4nO2YzUrDQBDH5+BX/TiJdCcUvHjyMWx9KRH8eCjBi5XuNqcePYgK9i1UZmBkk1TbWHAFcddkfrA0yc7C/8/MziYFUBSlPcgEN8nhJVl8Imveyl88l7zXgf+iUfJeh63J2aF8GdaMUzAjIRrJ4oV/QBafaZT15bq7RTYbkMVpGWzOYhuhEI0+RUXQuHu0uDgblIvNYzwLJUEayZlXfyPDve35IHG7O0WQMy8QGQrRSM48FDejrL+w2OJx5fYeIkMhGtma06r+pj5V3rUP+Kw/PIHIcIhGuTtcY4e3yzsC3vj52EYkVKNcHazPJny9za79c0gECdU4m6hfpwSHaGy0EU50QGuNwDfp/et5ViNL0IxUaGmB7hHUrsXafkHPkQ/0ZK+hrygVrO9aFbpHauge+e09IhNYbcQXogxhpRWfujFhNZIYrBlJDP5R15r7szjVAWHtd38jtlDW9gsNPEe4VospwSEaG2NEgTR4BxFxVxTTdAspAAAAAElFTkSuQmCC;" parent="1" vertex="1">
          <mxGeometry x="283" y="1796" width="30" height="30" as="geometry" />
        </mxCell>
        <mxCell id="b7DNo_pChQtwdVCJHLkM-91" style="edgeStyle=orthogonalEdgeStyle;rounded=0;orthogonalLoop=1;jettySize=auto;html=1;entryX=0.5;entryY=0;entryDx=0;entryDy=0;" parent="1" source="b7DNo_pChQtwdVCJHLkM-90" target="b7DNo_pChQtwdVCJHLkM-43" edge="1">
          <mxGeometry relative="1" as="geometry" />
        </mxCell>
        <mxCell id="b7DNo_pChQtwdVCJHLkM-92" style="edgeStyle=orthogonalEdgeStyle;rounded=0;orthogonalLoop=1;jettySize=auto;html=1;exitX=0.5;exitY=1;exitDx=0;exitDy=0;" parent="1" source="b7DNo_pChQtwdVCJHLkM-90" target="b7DNo_pChQtwdVCJHLkM-44" edge="1">
          <mxGeometry relative="1" as="geometry" />
        </mxCell>
        <mxCell id="b7DNo_pChQtwdVCJHLkM-90" value="" style="shape=image;verticalLabelPosition=bottom;labelBackgroundColor=default;verticalAlign=top;aspect=fixed;imageAspect=0;image=data:image/png,iVBORw0KGgoAAAANSUhEUgAAAEAAAABACAYAAACqaXHeAAAACXBIWXMAAAsTAAALEwEAmpwYAAAF50lEQVR4nO1aTYhcRRDumPib+Je4O1WzIxFdjSiCJ1HwJCFBUdQo+ANuRA9GESMKQrIK3ozxpB71ZFDJxpwMiTnoJFM9s2tcNJpATPyJh4AmRAUTxd0u01L9+r1583b+dn525y3zwYOZft3VXdXV9ddPqT766KOPPuYGNj+wjHXmSSbcYTQcMxrPBg8cZY1jTLBe+qiFBmvVeUz4otF4ijXaeo8hPMmEG2WMWgiwpdxyJthbZhI0EzxjdXaV3ZtZ6p4i3ihtTFCMCWOPjFVpht2bWcqEB/zO/mY03NNojClk7nVaEAhhwk7iJSqtMBq3B8zDD7aUG2p2nJ0YyhmNP7mxGj5UaYTRuMbv/F9WD1w32/G2kL3BaDwT0MiuVmkDExScGhO83DINja/4o7BPpQmWBq81hOdkB8UOtEwnP7DMuUnCc3Y8c41KC5hgJDi/uL19WviJ04ICPKHSAqPhDa/+r4Zt1qpFrDHPhF/NxiYwwWveGG5RaYEh3OYFMBK1FTN3lYMd+Js1jNrdwxc2rU2E21RawIS7vPW+T/7bwzddwAQlv5PHYlHfcdbwkv0yu6IWLaERCBN3qbSAfUQ3TXin+H8X53uGxSg6bSA8FAlCIzPhfkP4uiFYJ5GhHR/M2PzKi4SG16aiSgsMwZEZMb7GU9OlzG1hH4n1DcHdsrNOAA1zBDii0gBD+KC4rSQD4hprjbH5lVcE4+Bt1rjbEHxfJUkSt3q/6nWwhoP+zG5yZ98zMHs6XnABjc3+GHyteh2G4B+3cJ/XtysA+W31iktD76F6HazhW7/4zZ3TABj1qfRB1eswRXi4qg2YRaUn3PEZNoBgnUoDjIaHZLcM4XTIQNwDNMI0Dd4eY3yaCb5JDfNJGI1v+fP7jmoSRsO7nvmtKu2wOrtK/LzR8O+Uzt7aqL/0MQRTMkbGqoUAo2GL14IT9YTgmT+RuuSnESTpiUV0U6Lics7FMMozrbN3SJu8i4xmE4lSqsBlo/ZfnZJ49E4tNHAsJBbjxhonDcHv8gS/cau8W5ACMJRdHQmgmBms1U/elbUhhYXQJCQVNho/SGZ1dv9VOKNvAQaY8LvEsfg0VbXASqMHo0Hlx6XCZ1w4G9YACA/FNcHtfOydGxuWxDWedWF1GoyinVTnM+HTQaUn2sUxueioxqj8r9bm+k4M5cJCihfEz0zZp2xeLVG9BptXS+RmN7zNid8DSjG0om9yt2toRbmQCpTwFD8Gt8g9IggjhYx4nU9+E240Gv70QhhNjhEbYAhOx+zC6Wp2IcwCHa2AZsU8poAPqPmClYwtrNlHjMNIuDNyESp+3T3+UrSsKWVGEuPXNzF+pGI84Q5Zy9wyP3nl5eK7/cL/cNfdY2rxbHfQlbwTDLnfRXyhrgaNqcWsYUPUR+4aJpZfNjfMW7WICT7ziz1a75LDX4bsrBL1jccFFjCE41X67UzakAr6pdyw3Dz7vnvq9e0YWMOz3hidtPuzVzdX3HCG7DATPi/5vTw2PwBRn/wAhO3Sx/XVQM2oti3CyvKXJ7ChEzzWhHysIB86eMPVUoEi0gjCTVEb4aZwx1svwDhX+ast5S5W3QITPu4Xf6BVGqaIa2smQ0Vc2/LavE3iYvZR1S0Ygo/dJAV4rlUaLuStIQB51ypdf3TELn2kugXjDc4UZW5ulYbUBpM1fvk927phElOlwVtCL6K6BeNj+3Y+XBIVDf131BbFE9lH2vsGMcg7VLfADXL14FIUqC4Nb/DiBU9fH6gwjK3Q73otgRsJoIkFGA3vJ11W2bXCe92evy1wBxbAhF94VV0zwzMQft7t+edfAwh/cXaklBsO2+y+oev9sTje7fnbAre5AKkXBHcEyHLn16i90/PPvwD21d7paprR6fnbBre5gHpnvZpt6PT8bYPbXEA9a1/NO3R6/vnXAPL+XuPmmrUDgje7Nf/8awD5iK9KwsIFfCwZIXZ6/h4QANSM+avlCJ2ev21wjSyu154uCgAqStQ9+RAUuiaAPvroow+1wPA/F8dkVmD1BcoAAAAASUVORK5CYII=;" parent="1" vertex="1">
          <mxGeometry x="221" y="1224" width="64" height="64" as="geometry" />
        </mxCell>
      </root>
    </mxGraphModel>
  </diagram>
</mxfile>
